<svg xmlns="http://www.w3.org/2000/svg" xmlns:xlink="http://www.w3.org/1999/xlink" width="131" height="32" viewBox="0 0 131 32">
    <defs>
        <path shape-rendering="optimizeQuality" id="prefix__a" d="M35.988 7v-.396h-1.98V2.752h-.432V7h2.412zm3.294 0v-.396h-2.274V4.99h2.058v-.396h-2.058V3.148h2.202v-.396h-2.634V7h2.706zm2.778.108c.26 0 .533-.037.819-.111.286-.074.549-.181.789-.321V4.594h-1.446v.396h1.014v1.422c-.16.092-.341.165-.543.219-.202.054-.413.081-.633.081-.272 0-.516-.05-.732-.15-.216-.1-.399-.234-.549-.402-.15-.168-.265-.363-.345-.585-.08-.222-.12-.455-.12-.699 0-.244.04-.477.12-.699.08-.222.195-.417.345-.585.15-.168.333-.302.549-.402.216-.1.46-.15.732-.15.264 0 .496.044.696.132.2.088.372.208.516.36l.324-.318c-.192-.192-.411-.335-.657-.429-.246-.094-.539-.141-.879-.141-.316 0-.609.056-.879.168-.27.112-.504.267-.702.465-.198.198-.353.433-.465.705-.112.272-.168.57-.168.894 0 .324.056.622.168.894.112.272.267.507.465.705.198.198.432.353.702.465.27.112.563.168.879.168zM44.73 7l.468-1.116h2.172L47.838 7h.504l-1.848-4.248h-.42L44.226 7h.504zm2.472-1.512H45.36l.924-2.232.918 2.232zM51.33 7v-.396h-1.98V2.752h-.432V7h2.412z"/>
        <path shape-rendering="optimizeQuality" id="prefix__b" d="M54.208 7V2.752h-.432V7h.432zm1.584 0V3.364h.012L58.336 7h.54V2.752h-.432v3.6h-.012l-2.532-3.6h-.54V7h.432zm4.668 0V4.99h1.98v-.396h-1.98V3.148h2.13v-.396h-2.562V7h.432zm4.83.108c.316 0 .609-.056.879-.168.27-.112.504-.267.702-.465.198-.198.353-.433.465-.705.112-.272.168-.57.168-.894 0-.324-.056-.622-.168-.894-.112-.272-.267-.507-.465-.705-.198-.198-.432-.353-.702-.465-.27-.112-.563-.168-.879-.168-.316 0-.609.056-.879.168-.27.112-.504.267-.702.465-.198.198-.353.433-.465.705-.112.272-.168.57-.168.894 0 .324.056.622.168.894.112.272.267.507.465.705.198.198.432.353.702.465.27.112.563.168.879.168zm0-.396c-.272 0-.516-.05-.732-.15-.216-.1-.399-.234-.549-.402-.15-.168-.265-.363-.345-.585-.08-.222-.12-.455-.12-.699 0-.244.04-.477.12-.699.08-.222.195-.417.345-.585.15-.168.333-.302.549-.402.216-.1.46-.15.732-.15.272 0 .516.05.732.15.216.1.399.234.549.402.15.168.265.363.345.585.08.222.12.455.12.699 0 .244-.04.477-.12.699-.08.222-.195.417-.345.585-.15.168-.333.302-.549.402-.216.1-.46.15-.732.15zM68.8 7V5.026h.72L70.684 7h.528l-1.224-2.016c.352-.032.621-.149.807-.351.186-.202.279-.451.279-.747 0-.38-.125-.664-.375-.852-.25-.188-.591-.282-1.023-.282h-1.308V7h.432zm.768-2.37H68.8V3.148h.768c.192 0 .355.019.489.057.134.038.241.091.321.159.08.068.138.147.174.237.036.09.054.185.054.285 0 .104-.018.201-.054.291-.036.09-.094.168-.174.234-.08.066-.187.119-.321.159-.134.04-.297.06-.489.06zM72.358 7V3.328h.012L73.906 7h.228l1.536-3.672h.012V7h.432V2.752h-.66L74.02 6.208l-1.434-3.456h-.66V7h.432zm4.836 0l.468-1.116h2.172L80.302 7h.504l-1.848-4.248h-.42L76.69 7h.504zm2.472-1.512h-1.842l.924-2.232.918 2.232zM82.336 7V3.148h1.422v-.396h-3.276v.396h1.422V7h.432zm2.514 0V2.752h-.432V7h.432zm3.078.108c.316 0 .609-.056.879-.168.27-.112.504-.267.702-.465.198-.198.353-.433.465-.705.112-.272.168-.57.168-.894 0-.324-.056-.622-.168-.894-.112-.272-.267-.507-.465-.705-.198-.198-.432-.353-.702-.465-.27-.112-.563-.168-.879-.168-.316 0-.609.056-.879.168-.27.112-.504.267-.702.465-.198.198-.353.433-.465.705-.112.272-.168.57-.168.894 0 .324.056.622.168.894.112.272.267.507.465.705.198.198.432.353.702.465.27.112.563.168.879.168zm0-.396c-.272 0-.516-.05-.732-.15-.216-.1-.399-.234-.549-.402-.15-.168-.265-.363-.345-.585-.08-.222-.12-.455-.12-.699 0-.244.04-.477.12-.699.08-.222.195-.417.345-.585.15-.168.333-.302.549-.402.216-.1.46-.15.732-.15.272 0 .516.05.732.15.216.1.399.234.549.402.15.168.265.363.345.585.08.222.12.455.12.699 0 .244-.04.477-.12.699-.08.222-.195.417-.345.585-.15.168-.333.302-.549.402-.216.1-.46.15-.732.15zm3.51.288V3.364h.012L93.982 7h.54V2.752h-.432v3.6h-.012l-2.532-3.6h-.54V7h.432z"/>
        <path shape-rendering="optimizeQuality" id="prefix__c" d="M97.608 7V2.752h-.432V7h.432zm1.584 0V3.364h.012L101.736 7h.54V2.752h-.432v3.6h-.012l-2.532-3.6h-.54V7h.432zm5.298.108c.168 0 .335-.028.501-.084.166-.056.316-.136.45-.24.134-.104.242-.233.324-.387.082-.154.123-.327.123-.519 0-.256-.054-.458-.162-.606-.108-.148-.242-.267-.402-.357-.16-.09-.335-.162-.525-.216-.19-.054-.365-.115-.525-.183-.16-.068-.294-.155-.402-.261-.108-.106-.162-.255-.162-.447 0-.132.026-.247.078-.345.052-.098.121-.178.207-.24s.183-.108.291-.138c.108-.03.218-.045.33-.045.36 0 .634.138.822.414l.378-.294c-.168-.192-.35-.326-.546-.402-.196-.076-.414-.114-.654-.114-.172 0-.34.024-.504.072-.164.048-.311.122-.441.222s-.234.226-.312.378c-.078.152-.117.33-.117.534 0 .196.031.359.093.489s.144.238.246.324c.102.086.218.157.348.213.13.056.264.106.402.15s.272.088.402.132c.13.044.246.099.348.165.102.066.184.148.246.246s.093.221.093.369c0 .124-.028.234-.084.33-.056.096-.127.177-.213.243s-.183.116-.291.15c-.108.034-.216.051-.324.051-.224 0-.418-.047-.582-.141-.164-.094-.292-.219-.384-.375l-.39.282c.164.224.363.385.597.483.234.098.481.147.741.147zM108.126 7V3.148h1.422v-.396h-3.276v.396h1.422V7h.432zm2.514 0V2.752h-.432V7h.432zm2.514 0V3.148h1.422v-.396H111.3v.396h1.422V7h.432zm3.564.108c.316 0 .575-.055.777-.165.202-.11.361-.249.477-.417.116-.168.195-.351.237-.549.042-.198.063-.385.063-.561V2.752h-.432v2.616c0 .204-.02.379-.06.525-.04.146-.093.269-.159.369-.066.1-.14.179-.222.237-.082.058-.164.103-.246.135-.082.032-.162.053-.24.063-.078.01-.143.015-.195.015-.056 0-.122-.005-.198-.015-.076-.01-.155-.031-.237-.063-.082-.032-.164-.077-.246-.135-.082-.058-.156-.137-.222-.237-.066-.1-.119-.223-.159-.369-.04-.146-.06-.321-.06-.525V2.752h-.432v2.664c0 .176.021.363.063.561.042.198.121.381.237.549.116.168.274.307.474.417.2.11.46.165.78.165zM120.714 7V3.148h1.422v-.396h-3.276v.396h1.422V7h.432zm4.788 0v-.396h-2.274V4.99h2.058v-.396h-2.058V3.148h2.202v-.396h-2.634V7h2.706z"/>
        <path shape-rendering="optimizeQuality" id="prefix__d" d="M40.387 26.6l3.37-10.584h.043L47.17 26.6h3.002l4.471-15.293H51.23l-2.57 10.066h-.043l-3.175-10.066H42.31l-3.197 9.807h-.043l-2.441-9.807h-3.672L37.493 26.6h2.894zm26.676 0v-3.11h-7.409v-3.11h6.632v-3.111h-6.632v-2.851h7.02v-3.11h-10.39V26.6h10.78zm8.964 0c.677 0 1.357-.072 2.041-.216.684-.144 1.3-.382 1.847-.713.547-.331.994-.767 1.34-1.307.345-.54.518-1.213.518-2.02 0-.489-.08-.95-.238-1.382-.158-.432-.385-.81-.68-1.134-.295-.324-.648-.59-1.059-.799-.41-.209-.867-.349-1.371-.421v-.043c.792-.245 1.429-.652 1.911-1.22.483-.57.724-1.286.724-2.15 0-.835-.166-1.505-.497-2.009-.331-.504-.763-.896-1.296-1.177-.533-.28-1.134-.468-1.803-.561-.67-.094-1.336-.14-1.998-.14h-5.703V26.6h6.264zm-.453-9.18h-2.441v-3.262h2.29c.259 0 .525.026.799.076.273.05.518.133.734.248.216.116.392.278.53.486.136.21.204.472.204.789 0 .302-.06.561-.183.777-.123.216-.285.39-.486.519-.202.13-.429.223-.68.28-.253.058-.508.087-.767.087zm.583 6.329h-3.024V20.27h2.549c.273 0 .568.022.885.065.317.043.612.122.886.238.273.115.5.284.68.507.18.223.27.515.27.875 0 .331-.068.612-.205.842-.137.23-.313.418-.53.562-.215.144-.456.245-.723.302-.266.058-.529.087-.788.087zm11.599 3.24c.792 0 1.544-.101 2.257-.303.713-.201 1.34-.51 1.88-.928.54-.418.968-.944 1.285-1.577.316-.634.475-1.375.475-2.225 0-.893-.173-1.606-.519-2.138-.345-.533-.78-.958-1.306-1.275-.526-.317-1.091-.561-1.696-.734-.605-.173-1.17-.346-1.696-.519-.525-.172-.96-.381-1.306-.626-.346-.245-.519-.598-.519-1.058 0-.288.072-.533.216-.735.144-.201.331-.363.562-.486.23-.122.475-.212.734-.27.26-.057.511-.086.756-.086.418 0 .86.083 1.329.248.468.166.838.421 1.112.767l2.311-2.527c-.648-.576-1.375-.987-2.181-1.231-.807-.245-1.642-.368-2.506-.368-.749 0-1.476.105-2.182.314-.705.208-1.328.522-1.868.94-.54.417-.972.935-1.296 1.554-.324.62-.486 1.34-.486 2.16 0 .85.176 1.534.53 2.052.352.519.795.936 1.328 1.253.532.317 1.108.569 1.728.756.619.187 1.195.375 1.728.562.532.187.975.414 1.328.68.353.267.53.63.53 1.091 0 .274-.07.511-.206.713-.137.201-.317.367-.54.497-.223.13-.475.226-.756.291-.28.065-.558.097-.832.097-.561 0-1.105-.126-1.63-.378-.526-.252-.962-.608-1.307-1.069l-2.398 2.635c.735.677 1.527 1.167 2.376 1.47.85.302 1.771.453 2.765.453zm11.729-.389V11.307h-3.37V26.6h3.37zm9.396 0V14.288h4.363v-2.98h-12.096v2.98h4.363V26.6h3.37zm16.977 0v-3.11h-7.408v-3.11h6.63v-3.111h-6.63v-2.851h7.02v-3.11h-10.39V26.6h10.778z"/>
    </defs>
    <g fill="none" fill-rule="evenodd">
        <g fill-rule="nonzero">
            <path shape-rendering="optimizeQuality" fill="#AFC73F" d="M20.225 5.414c-.039.67-.162.797-1.127 1.044-2.302.591-4.607 1.17-6.91 1.757-2.335.597-4.667 1.207-7.004 1.795-1.085.274-2.18.513-3.272.76-.343.077-1.254-.546-1.278-.898C.617 9.616.51 9.396.46 9.156.376 8.763.393 8.442.676 8.08c.269-.343.632-.72.455-1.277-.087-.274.117-.445.383-.532 1.215-.395 2.455-.695 3.692-1.006 1.726-.434 3.447-.888 5.178-1.304.954-.23 1.913-.453 2.895-.539.408-.036.739.09 1.058.366.371.321.526.244.645-.224.105-.413.682-.654 1.064-.398.588.392 1.221.664 1.894.864.174.052.316.045.5 0 1.375-.332 1.902-.061 1.785 1.383" transform="translate(0 1)"/>
            <path shape-rendering="optimizeQuality" fill="#F8C944" d="M22.045 10.038c.319.648.255.8-.414 1.214-.593.366-1.261.52-1.918.682-.464.113-.933.207-1.35.428-.49.26-1.063.03-1.536.316-.51-.069-.92.338-1.425.294l-.871.245c-.287-.01-.51.178-.772.248-.277-.073-.508.073-.75.159-.205.046-.468-.042-.565.248-.44-.087-.856.033-1.272.15-.066-.021-.1.012-.118.072l-.001.002c-.292-.086-.58.048-.87.02-.29-.363-.69-.438-1.123-.438-.196 0-.37-.043-.502-.232-.468-.674-.782-.785-1.579-.593-.118.029-.232.078-.348.118-.49.172-.98.3-1.485.045-.289-.145-.616-.119-.883-.019-.512.19-.915.036-1.34-.221-.487-.295-.552-.616-.124-.978.533-.451 1.186-.65 1.851-.815 1.731-.431 3.461-.867 5.192-1.299 1.14-.284 2.283-.56 3.423-.845 1.696-.425 3.389-.863 5.087-1.28.716-.176 1.442-.315 2.163-.468.202-.043.347-.006.372.242.015.157.062.31.095.466l.06.136c.018.025.029.053.033.083-.225.936.553 1.391.97 2.02" transform="translate(0 1)"/>
            <path shape-rendering="optimizeQuality" fill="#DB6533" d="M10.717 15.215l.193-.176c.315.062.561-.124.83-.23.343-.012.642-.185.968-.261.242.056.405-.1.58-.22l.164.032c.057.037.102.018.142-.029l.293-.02c.065.018.11-.002.134-.065l.168-.073c.427-.078.865-.118 1.247-.352.794-.04 1.534-.333 2.297-.51 1.536-.354 3.045-.83 4.608-1.058.447-.066.913-.11 1.352.108.258.128.53.011.77-.059.508-.148 1.052-.063 1.55-.29.212-.097.32.044.334.312.028.505-.27.872-.473 1.271-.906 1.782-2.437 2.76-4.292 3.359-2.488.803-5.053 1.3-7.573 1.977-.747.2-1.503.365-2.275.433-.404.035-.624-.013-.73-.556-.136-.708-.217-1.502-.872-2.036-.246-.201-.46-.494-.407-.873.28-.3.6-.545.992-.684" transform="translate(0 1)"/>
            <path shape-rendering="optimizeQuality" fill="#BA3E65" d="M10.291 21.91c.015-.586.227-.93.744-1.157 1.294-.567 2.666-.85 4.022-1.195 1.393-.355 2.788-.706 4.188-1.035.581-.137 1.175-.218 1.765-.317.142-.023.31-.033.275.195-.114.747-.122 1.478.16 2.205.166.43-.107.87-.09 1.31.023.598-.466.663-.851.841-.882.407-1.83.6-2.76.844-1.53.401-3.073.746-4.61 1.113-.136.032-.275.047-.412.073-.917.172-1.594.038-1.88-1.05-.165-.628-.656-1.169-.55-1.826" transform="translate(0 1)"/>
            <path shape-rendering="optimizeQuality" fill="#4C95A8" d="M1.807 4.957c.699-.763 1.128-1.596 2.149-1.751.254-.039.49-.203.577-.48.157-.502.475-.826.957-1.048.305-.14.596-.337.785-.666.079-.138.292-.442.497-.258.62.558 1.263.416 1.94.181.18-.062.4-.135.569-.086.8.235 1.618.05 2.421.154.192.024.536.103.5.201-.108.295.058.57-.079.88-.385.865-1.214.841-1.914 1.04-1.467.415-2.947.782-4.428 1.145-1.054.26-2.116.49-3.179.713-.2.042-.419-.01-.795-.025M14.524 29.134c-.606-.101-1.013-.08-1.423.102-.274.122-.559.034-.768-.204-.185-.211-.293-.429-.125-.716.139-.237.015-.492-.065-.708-.367-.996-.216-1.386.796-1.819 1.134-.485 2.352-.681 3.538-.988.582-.15 1.17-.23 1.772-.22.28.004.57-.047.622.368.052.412.054.839-.41.956-.56.141-.777.452-.93.992-.223.791-.912 1.246-1.531 1.738-.498.395-1.015.626-1.476.499" transform="translate(0 1)"/>
            <path shape-rendering="optimizeQuality" fill="#AFC73F" d="M21.656 25.271c.597-.418.682-1.083.68-1.79 0-.078.2-.2.324-.23.613-.14 1.21-.374 1.85-.384.14-.002.303-.027.389.108.09.142-.031.246-.101.371-.538.962-1.063 1.931-1.587 2.901-.218.402-.532.677-1.001.615-.336-.045-.498-.327-.489-.657.008-.28.058-.559-.065-.934" transform="translate(0 1)"/>
        </g>
        <g fill-rule="nonzero" transform="translate(0 1)">
            <use fill="#000" xlink:href="#prefix__a"/>
            <use fill="#4A4A4A" xlink:href="#prefix__a"/>
        </g>
        <g fill-rule="nonzero" transform="translate(0 1)">
            <use fill="#000" xlink:href="#prefix__b"/>
            <use fill="#4A4A4A" xlink:href="#prefix__b"/>
        </g>
        <g fill-rule="nonzero" transform="translate(0 1)">
            <use fill="#000" xlink:href="#prefix__c"/>
            <use fill="#4A4A4A" xlink:href="#prefix__c"/>
        </g>
        <g fill-rule="nonzero" transform="translate(0 1)">
            <use fill="#000" xlink:href="#prefix__d"/>
            <use fill="#4A4A4A" xlink:href="#prefix__d"/>
        </g>
        <path shape-rendering="optimizeQuality" stroke="#4A4A4A" stroke-linecap="square" stroke-width=".6" d="M129.853 0.147L129.853 30.067" transform="translate(0 1)"/>
    </g>
</svg>
