<?xml version="1.0" standalone="no"?>
<!DOCTYPE svg PUBLIC "-//W3C//DTD SVG 20010904//EN"
 "http://www.w3.org/TR/2001/REC-SVG-20010904/DTD/svg10.dtd">
<svg version="1.0" xmlns="http://www.w3.org/2000/svg"
 width="180.000000pt" height="180.000000pt" viewBox="0 0 180.000000 180.000000"
 preserveAspectRatio="xMidYMid meet">
<metadata>
Created by potrace 1.14, written by Peter Selinger 2001-2017
</metadata>
<g transform="translate(0.000000,180.000000) scale(0.100000,-0.100000)"
fill="#000000" stroke="none">
<path d="M860 1536 c0 -19 27 -28 33 -11 7 15 -1 25 -20 25 -7 0 -13 -6 -13
-14z"/>
<path d="M950 1534 c0 -17 22 -14 28 4 2 7 -3 12 -12 12 -9 0 -16 -7 -16 -16z"/>
<path d="M776 1533 c-11 -12 -6 -30 9 -30 19 0 27 24 10 30 -7 3 -16 3 -19 0z"/>
<path d="M1045 1521 c-7 -12 12 -24 25 -16 11 7 4 25 -10 25 -5 0 -11 -4 -15
-9z"/>
<path d="M676 1502 c-9 -14 9 -31 23 -23 7 5 10 14 7 20 -8 13 -23 14 -30 3z"/>
<path d="M1140 1485 c0 -8 7 -15 15 -15 8 0 15 7 15 15 0 8 -7 15 -15 15 -8 0
-15 -7 -15 -15z"/>
<path d="M405 1453 c7 -24 -9 -32 -19 -10 -3 6 -3 2 0 -10 3 -13 1 -23 -5 -23
-6 0 -11 -7 -11 -15 0 -9 -7 -18 -15 -21 -8 -4 -15 -10 -15 -16 0 -14 -27 -38
-34 -30 -4 3 -4 -1 0 -11 3 -10 1 -17 -6 -17 -6 0 -8 -4 -5 -10 3 -5 1 -10 -5
-10 -8 0 -10 10 -6 28 5 22 4 24 -4 9 -6 -9 -8 -26 -5 -37 3 -10 -3 -36 -14
-58 -11 -22 -17 -42 -14 -46 4 -3 2 -6 -4 -6 -6 0 -10 11 -10 25 0 13 3 22 8
19 5 -3 6 3 2 12 -4 12 -3 15 5 10 8 -5 10 -1 5 10 -5 14 -8 12 -20 -10 -8
-15 -11 -31 -8 -36 3 -6 1 -10 -6 -10 -7 0 -5 -8 6 -20 10 -11 15 -23 12 -27
-4 -4 -14 2 -22 13 -13 18 -14 18 -11 -6 1 -14 6 -32 10 -41 4 -8 2 -26 -3
-40 -5 -13 -10 -18 -10 -11 -1 6 -6 12 -13 12 -6 0 -4 -8 6 -19 14 -15 15 -25
7 -52 -5 -19 -10 -28 -10 -21 -1 6 -6 12 -13 12 -7 0 -5 -7 4 -17 21 -23 22
-79 2 -62 -8 6 -14 8 -14 4 0 -4 6 -13 14 -19 8 -6 17 -27 21 -46 7 -31 6 -33
-9 -21 -9 7 -16 9 -16 3 0 -5 7 -12 15 -16 21 -8 19 -26 -2 -20 -10 2 -8 -1 5
-7 26 -14 30 -34 4 -25 -11 4 -8 -1 8 -15 15 -12 18 -19 8 -16 -17 6 -19 -16
-3 -30 4 -4 5 -2 0 6 -5 9 -3 12 6 9 8 -3 14 -9 15 -14 2 -18 23 -62 34 -69
13 -8 3 43 -13 63 -7 9 -4 18 8 32 10 11 13 20 7 20 -7 0 -12 -4 -12 -10 0 -5
-5 -10 -11 -10 -6 0 -9 7 -6 15 4 8 2 17 -4 21 -6 4 -4 16 7 32 14 21 14 24 2
14 -13 -10 -17 -9 -22 10 -11 43 -7 98 9 104 8 4 15 11 15 16 0 6 -6 5 -15 -2
-12 -10 -15 -10 -15 0 0 7 8 19 18 27 16 14 16 14 0 9 -25 -8 -22 11 3 24 11
7 18 14 15 17 -3 3 -13 0 -22 -8 -16 -13 -17 -12 -11 11 4 14 7 31 7 38 0 6 7
12 15 12 8 0 15 4 15 10 0 5 -8 7 -17 4 -12 -4 -10 1 7 15 21 18 22 20 5 15
-17 -5 -16 -2 5 15 19 16 20 20 6 14 -13 -4 -17 -3 -12 5 4 7 14 12 22 12 8 0
14 4 14 10 0 5 -6 7 -14 4 -11 -4 -13 0 -9 15 3 13 14 21 27 22 20 0 20 1 1 9
-19 9 -19 9 3 16 18 5 20 9 10 15 -10 7 -9 9 5 9 9 0 17 5 17 11 0 5 -5 7 -12
3 -7 -4 -8 -3 -4 4 4 7 15 12 24 12 15 0 15 2 2 10 -12 8 -12 10 5 11 11 0 14
3 7 6 -15 6 -6 23 11 19 7 -1 9 -1 5 1 -15 9 -8 25 7 19 9 -3 15 -1 14 7 -3
28 2 37 24 37 18 0 19 2 7 10 -12 8 -10 10 10 10 20 0 22 2 10 10 -13 8 -12
10 3 10 10 0 15 5 12 11 -4 6 -14 8 -23 4 -8 -3 -19 0 -24 7 -6 9 -7 5 -3 -9z
m-180 -323 c3 -5 1 -10 -4 -10 -6 0 -11 5 -11 10 0 6 2 10 4 10 3 0 8 -4 11
-10z"/>
<path d="M597 1464 c-9 -10 2 -24 19 -24 8 0 14 7 14 15 0 15 -21 21 -33 9z"/>
<path d="M1380 1457 c-22 -9 -23 -11 -6 -15 15 -3 16 -6 5 -13 -10 -6 -7 -9
11 -9 20 0 22 -2 10 -10 -12 -8 -11 -10 8 -10 21 0 26 -9 23 -37 -1 -8 5 -10
14 -7 15 6 22 -10 8 -19 -5 -2 -3 -2 4 -1 20 5 25 -14 6 -19 -13 -3 -10 -5 7
-6 20 -1 22 -3 10 -11 -13 -8 -13 -10 2 -10 9 0 20 -5 24 -12 5 -8 2 -9 -10
-5 -10 4 -15 3 -11 -3 3 -6 14 -10 23 -10 15 0 15 -2 2 -10 -13 -8 -12 -10 3
-10 20 0 23 -16 5 -23 -9 -4 -8 -6 2 -6 8 -1 21 -11 29 -22 11 -19 11 -21 -3
-16 -9 4 -16 2 -16 -3 0 -6 6 -10 14 -10 8 0 18 -5 22 -12 5 -8 2 -9 -9 -5
-10 3 -17 2 -17 -3 0 -6 6 -10 14 -10 8 0 18 -5 22 -12 5 -8 2 -9 -9 -5 -10 3
-17 2 -17 -3 0 -6 7 -10 15 -10 8 0 15 -5 15 -11 0 -6 -7 -8 -16 -5 -8 3 -12
2 -9 -4 3 -6 13 -10 21 -10 8 0 14 -7 14 -15 0 -9 -6 -12 -17 -8 -14 4 -13 2
3 -10 15 -12 21 -28 22 -63 2 -41 0 -45 -13 -34 -9 7 -15 8 -15 2 0 -5 7 -12
15 -16 8 -3 15 -13 15 -22 0 -14 -2 -15 -17 -3 -17 13 -17 13 0 -7 9 -11 17
-24 17 -29 0 -4 -8 -1 -17 6 -17 13 -17 13 0 -7 20 -24 11 -40 -12 -22 -13 10
-13 9 1 -7 14 -17 15 -27 6 -63 -9 -37 -13 -41 -27 -30 -13 11 -13 10 1 -7 11
-13 14 -26 9 -34 -7 -11 -11 -10 -20 5 -6 11 -11 14 -11 7 0 -6 5 -15 11 -18
6 -4 7 -19 4 -37 -5 -21 -4 -28 4 -24 6 4 11 13 11 21 0 7 12 23 27 35 29 23
41 52 17 43 -8 -3 -14 0 -14 6 0 6 6 11 14 11 8 0 18 5 22 12 5 8 2 9 -9 5
-22 -8 -22 2 1 19 16 13 16 14 -1 8 -16 -6 -17 -3 -11 22 4 16 7 35 7 44 0 8
7 24 16 34 9 11 10 16 4 12 -20 -11 -15 15 5 31 15 13 15 14 0 10 -24 -8 -31
32 -11 63 15 23 15 24 0 11 -15 -12 -17 -11 -17 2 0 9 5 19 10 22 6 3 10 12
10 18 0 7 -4 6 -10 -3 -5 -8 -12 -11 -16 -7 -4 4 0 15 9 25 10 10 17 22 17 27
0 5 -7 0 -15 -11 -13 -17 -14 -17 -15 -2 0 9 5 20 10 23 6 3 10 11 10 18 0 6
-7 2 -15 -9 -11 -15 -14 -16 -15 -4 0 9 6 22 13 30 10 12 9 12 -5 1 -11 -8
-18 -9 -18 -3 0 6 4 13 9 17 10 6 8 47 -4 77 -7 18 -25 15 -25 -3 0 -6 4 -8 8
-5 4 2 8 -3 8 -12 1 -9 4 -25 9 -34 4 -11 3 -18 -4 -18 -10 0 -12 4 -11 25 1
11 -33 70 -44 77 -8 5 -8 13 2 28 17 27 15 38 -3 14 -17 -22 -20 -12 -5 17 7
13 7 19 0 19 -5 0 -10 -7 -10 -15 0 -8 -4 -15 -10 -15 -5 0 -10 4 -10 9 0 5
-12 23 -26 40 -15 18 -22 36 -18 43 5 8 10 6 15 -8 6 -16 8 -16 8 -2 1 20 -21
37 -27 20 -5 -15 -28 6 -33 30 -3 12 -9 14 -29 5z m220 -741 c0 -3 -4 -8 -10
-11 -5 -3 -10 -1 -10 4 0 6 5 11 10 11 6 0 10 -2 10 -4z"/>
<path d="M890 1446 c0 -19 27 -28 33 -11 7 15 -1 25 -20 25 -7 0 -13 -6 -13
-14z"/>
<path d="M810 1435 c0 -9 5 -15 11 -13 6 2 11 8 11 13 0 5 -5 11 -11 13 -6 2
-11 -4 -11 -13z"/>
<path d="M980 1435 c0 -8 7 -15 15 -15 8 0 15 7 15 15 0 8 -7 15 -15 15 -8 0
-15 -7 -15 -15z"/>
<path d="M1237 1443 c-12 -11 -8 -23 8 -23 8 0 15 7 15 15 0 16 -12 20 -23 8z"/>
<path d="M1067 1423 c-13 -12 -7 -23 13 -23 13 0 18 5 14 15 -7 16 -17 19 -27
8z"/>
<path d="M336 1404 c-8 -22 -4 -25 11 -9 7 8 9 16 4 19 -5 3 -12 -1 -15 -10z"/>
<path d="M517 1405 c-3 -7 -3 -15 0 -18 7 -7 33 3 33 13 0 14 -28 19 -33 5z"/>
<path d="M707 1413 c-12 -11 -8 -23 8 -23 8 0 15 7 15 15 0 16 -12 20 -23 8z"/>
<path d="M1147 1385 c-6 -13 1 -25 14 -25 14 0 18 28 4 34 -7 2 -16 -1 -18 -9z"/>
<path d="M1305 1381 c-7 -12 12 -24 25 -16 11 7 4 25 -10 25 -5 0 -11 -4 -15
-9z"/>
<path d="M311 1364 c0 -11 3 -14 6 -6 3 7 2 16 -1 19 -3 4 -6 -2 -5 -13z"/>
<path d="M607 1363 c-9 -14 8 -33 21 -24 10 6 10 10 -2 20 -8 7 -17 8 -19 4z"/>
<path d="M885 1362 c-16 -11 -16 -32 -1 -32 8 0 17 4 20 8 7 12 -8 32 -19 24z"/>
<path d="M960 1345 c0 -8 7 -15 15 -15 8 0 15 7 15 15 0 8 -7 15 -15 15 -8 0
-15 -7 -15 -15z"/>
<path d="M455 1340 c-8 -13 4 -32 16 -25 12 8 12 35 0 35 -6 0 -13 -4 -16 -10z"/>
<path d="M775 1341 c-7 -12 12 -24 25 -16 11 7 4 25 -10 25 -5 0 -11 -4 -15
-9z"/>
<path d="M1217 1335 c-7 -15 1 -25 20 -25 7 0 13 6 13 14 0 19 -27 28 -33 11z"/>
<path d="M1067 1324 c-10 -11 4 -33 18 -28 8 3 11 12 8 20 -5 15 -16 18 -26 8z"/>
<path d="M697 1305 c-6 -15 1 -25 18 -25 16 0 15 28 -1 34 -7 3 -15 -1 -17 -9z"/>
<path d="M1376 1313 c-12 -12 -6 -33 9 -33 8 0 15 6 15 14 0 17 -14 28 -24 19z"/>
<path d="M527 1294 c-9 -10 2 -24 19 -24 8 0 14 7 14 15 0 15 -21 21 -33 9z"/>
<path d="M1540 1286 c0 -19 17 -29 25 -16 3 5 1 10 -5 10 -6 0 -8 5 -5 10 3 6
1 10 -4 10 -6 0 -11 -6 -11 -14z"/>
<path d="M1277 1284 c-8 -8 1 -24 14 -24 5 0 9 7 9 15 0 15 -12 20 -23 9z"/>
<path d="M256 1267 c3 -10 9 -15 12 -12 3 3 0 11 -7 18 -10 9 -11 8 -5 -6z"/>
<path d="M390 1265 c0 -17 10 -24 25 -18 8 2 12 10 9 17 -6 16 -34 17 -34 1z"/>
<path d="M1156 1272 c-6 -10 6 -26 20 -29 15 -3 13 25 -2 31 -8 3 -15 2 -18
-2z"/>
<path d="M627 1256 c-3 -8 -2 -18 3 -21 13 -8 24 15 12 27 -6 6 -11 4 -15 -6z"/>
<path d="M880 1255 c0 -10 7 -15 18 -13 21 4 19 22 -2 26 -10 2 -16 -3 -16
-13z"/>
<path d="M972 1249 c2 -6 8 -10 13 -10 5 0 11 4 13 10 2 6 -4 11 -13 11 -9 0
-15 -5 -13 -11z"/>
<path d="M792 1238 c6 -18 25 -20 31 -3 5 10 0 15 -14 15 -12 0 -19 -5 -17
-12z"/>
<path d="M477 1224 c-11 -11 3 -24 18 -18 8 4 12 10 9 15 -6 11 -18 12 -27 3z"/>
<path d="M1055 1220 c-10 -16 7 -31 23 -21 10 6 10 10 -2 20 -10 9 -16 9 -21
1z"/>
<path d="M1320 1215 c0 -8 7 -15 15 -15 8 0 15 7 15 15 0 8 -7 15 -15 15 -8 0
-15 -7 -15 -15z"/>
<path d="M1433 1222 c-8 -5 -9 -13 -3 -22 6 -10 13 -11 19 -5 13 13 -1 36 -16
27z"/>
<path d="M1215 1211 c-7 -12 12 -24 25 -16 11 7 4 25 -10 25 -5 0 -11 -4 -15
-9z"/>
<path d="M717 1204 c-9 -10 2 -24 19 -24 8 0 14 7 14 15 0 15 -21 21 -33 9z"/>
<path d="M567 1193 c-13 -12 -7 -23 13 -23 13 0 18 5 14 15 -7 16 -17 19 -27
8z"/>
<path d="M350 1180 c-12 -7 -12 -12 -2 -22 14 -14 35 1 24 19 -5 8 -13 9 -22
3z"/>
<path d="M900 1170 c-12 -7 -12 -12 -2 -22 14 -14 35 1 24 19 -5 8 -13 9 -22
3z"/>
<path d="M1124 1169 c-11 -18 11 -32 25 -16 9 12 8 16 -3 20 -9 4 -18 1 -22
-4z"/>
<path d="M1350 1155 c0 -10 7 -15 18 -13 21 4 19 22 -2 26 -10 2 -16 -3 -16
-13z"/>
<path d="M650 1147 c0 -19 10 -27 25 -20 17 6 8 33 -11 33 -8 0 -14 -6 -14
-13z"/>
<path d="M815 1151 c-7 -12 12 -24 25 -16 11 7 4 25 -10 25 -5 0 -11 -4 -15
-9z"/>
<path d="M972 1148 c6 -18 28 -21 28 -4 0 9 -7 16 -16 16 -9 0 -14 -5 -12 -12z"/>
<path d="M430 1134 c0 -17 22 -14 28 4 2 7 -3 12 -12 12 -9 0 -16 -7 -16 -16z"/>
<path d="M1260 1125 c0 -10 7 -15 18 -13 21 4 19 22 -2 26 -10 2 -16 -3 -16
-13z"/>
<path d="M522 1109 c2 -6 8 -10 13 -10 5 0 11 4 13 10 2 6 -4 11 -13 11 -9 0
-15 -5 -13 -11z"/>
<path d="M747 1114 c-9 -10 2 -24 19 -24 8 0 14 7 14 15 0 15 -21 21 -33 9z"/>
<path d="M1040 1105 c0 -8 7 -15 15 -15 8 0 15 7 15 15 0 8 -7 15 -15 15 -8 0
-15 -7 -15 -15z"/>
<path d="M190 1101 c0 -6 4 -13 10 -16 6 -3 7 1 4 9 -7 18 -14 21 -14 7z"/>
<path d="M1185 1102 c-6 -4 -11 -13 -12 -19 -4 -18 24 -16 30 2 7 17 -4 27
-18 17z"/>
<path d="M610 1076 c0 -22 17 -28 24 -10 9 22 8 24 -9 24 -8 0 -15 -6 -15 -14z"/>
<path d="M1091 1061 c-10 -7 -10 -10 -1 -16 6 -4 16 -3 22 3 13 13 -4 23 -21
13z"/>
<path d="M702 1044 c4 -21 22 -23 26 -1 2 10 -3 17 -13 17 -10 0 -15 -6 -13
-16z"/>
<path d="M175 940 c3 -5 8 -10 11 -10 2 0 4 5 4 10 0 6 -5 10 -11 10 -5 0 -7
-4 -4 -10z"/>
<path d="M230 899 c0 -5 5 -7 10 -4 6 3 10 8 10 11 0 2 -4 4 -10 4 -5 0 -10
-5 -10 -11z"/>
<path d="M235 840 c-3 -5 -1 -10 4 -10 6 0 11 5 11 10 0 6 -2 10 -4 10 -3 0
-8 -4 -11 -10z"/>
<path d="M1625 830 c-3 -5 -1 -10 4 -10 6 0 11 5 11 10 0 6 -2 10 -4 10 -3 0
-8 -4 -11 -10z"/>
<path d="M1560 810 c0 -5 5 -10 11 -10 5 0 7 5 4 10 -3 6 -8 10 -11 10 -2 0
-4 -4 -4 -10z"/>
<path d="M1550 781 c0 -5 5 -13 10 -16 6 -3 10 -2 10 4 0 5 -4 13 -10 16 -5 3
-10 2 -10 -4z"/>
<path d="M652 354 c-12 -8 -22 -19 -22 -25 0 -5 9 0 20 11 34 34 56 21 54 -30
-1 -27 -5 -36 -21 -38 -11 -2 -28 4 -37 13 -9 9 -16 12 -16 6 0 -5 6 -13 13
-18 17 -11 508 -12 530 -1 26 14 22 64 -7 83 -19 13 -29 14 -45 5 -15 -8 -27
-8 -41 0 -13 7 -26 7 -37 1 -11 -5 -25 -5 -39 1 -14 7 -28 7 -40 0 -13 -7 -26
-7 -37 -1 -11 7 -24 6 -37 -1 -14 -8 -26 -8 -40 0 -13 7 -26 8 -37 1 -11 -6
-24 -6 -37 1 -12 7 -26 7 -41 0 -13 -6 -27 -7 -36 -1 -19 12 -21 11 -47 -7z
m126 -42 c3 -39 1 -42 -22 -42 -23 0 -26 4 -26 38 0 43 7 54 30 50 10 -2 16
-17 18 -46z m66 42 c9 -3 16 -12 16 -19 0 -7 5 -15 12 -17 19 -7 -27 -50 -49
-46 -13 2 -17 11 -16 33 2 25 1 27 -6 10 -8 -16 -10 -17 -10 -3 -1 9 6 24 15
32 18 18 17 18 38 10z m81 -2 c6 -4 11 -23 10 -42 0 -30 -3 -35 -25 -35 -21 0
-25 5 -26 35 -2 30 9 50 26 50 3 0 10 -4 15 -8z m86 -35 c7 -43 4 -47 -28 -47
-20 0 -23 5 -23 38 0 43 7 54 29 50 9 -2 18 -18 22 -41z m63 37 c9 -3 16 -12
16 -20 0 -8 5 -14 10 -14 6 0 10 -5 10 -11 0 -5 -4 -7 -10 -4 -5 3 -10 -3 -10
-15 0 -17 -5 -21 -27 -18 -24 3 -28 7 -26 33 2 25 1 27 -6 10 -8 -16 -10 -17
-10 -3 -1 9 6 24 15 32 18 18 17 18 38 10z m87 -4 c38 -21 15 -86 -28 -78 -30
5 -25 86 5 88 2 0 12 -5 23 -10z m-444 -42 c-3 -8 -6 -5 -6 6 -1 11 2 17 5 13
3 -3 4 -12 1 -19z m230 0 c-3 -8 -6 -5 -6 6 -1 11 2 17 5 13 3 -3 4 -12 1 -19z"/>
</g>
</svg>
