<svg class="uctlong" version="1.1" id="Layer_1" xmlns="http://www.w3.org/2000/svg" x="0" y="0" viewBox="0 0 194.1 28.4" xml:space="preserve">
  <style>
    .st0{fill:#fff}
  </style>
  <path class="st0" d="M192 19.9v-2.1h.2c.3 0 .6.1.9.3.4.4.5 1.1.1 1.5l-.1.1c-.2.2-.6.3-.9.3h-.2zm-.7.5h.9c.4 0 .8-.1 1.2-.4.7-.5.8-1.5.3-2.2-.3-.4-.9-.7-1.4-.6h-.9l-.1 3.2zm-2.4-1.2h-.9l.5-1.1.4 1.1zm.2.5.3.7h.7l-1.4-3.2h-.5l-1.4 3.2h.7l.3-.7h1.3zm-4 .7v-2.6h.7v-.5h-2.1v.5h.7v2.6h.7zm-2.6-2.9c-.3-.2-.6-.4-1-.4-.5 0-1 .4-1 .9 0 .4.2.7.8.9.2 0 .3.1.4.2.1.1.2.2.2.3 0 .3-.2.5-.5.4-.3 0-.6-.2-.7-.4l-.4.4c.2.4.7.6 1.1.6.6.1 1.1-.4 1.1-.9v-.1c0-.5-.2-.7-1-1-.4-.1-.5-.2-.5-.4s.2-.4.5-.4c.2 0 .4.1.5.3l.5-.4zm-4.8 1.2v-.9h.2c.4 0 .6.2.6.5s-.2.5-.6.5h-.2zm0 .5h.4c.7 0 1.1-.4 1.1-1 0-.3-.1-.6-.3-.8-.2-.2-.6-.3-.9-.2h-1v3.2h.6l.1-1.2zm-3.1 0h-1l.5-1.1.5 1.1zm.2.5.3.7h.7l-1.4-3.2h-.4l-1.4 3.2h.7l.3-.7h1.2zm-4.3-.5h-.9l.5-1.1.4 1.1zm.2.5.3.7h.7l-1.4-3.2h-.5l-1.4 3.2h.7l.3-.7h1.3zm-5.4-1.2v-1.3h-.6v3.2h.6V19l.1-.1 1.2 1.4h.9l-1.4-1.7 1.4-1.5h-.8l-1.4 1.4zm-7.4 1.9h.6v-2.1l2 2.2h.5v-3.2h-.6v2.1l-2-2.2h-.4l-.1 3.2zm-2.4-1.2h-.9l.5-1.1.4 1.1zm.2.5.3.7h.7l-1.4-3.2h-.5l-1.4 3.2h.7l.3-.7h1.3zm-5.7-2.5h-.7l1.4 3.2h.3l1.4-3.2h-.7l-.9 2.1-.8-2.1zm-4.4 3.2v-2.6h.8v-.5h-2.1v.5h.7v2.6h.6zm-2.7-3.2h-.6v3.2h.6v-3.2zm-2.1.5v-.5H139v3.2h1.8v-.5h-1.2V19h1.1v-.5h-1.1v-.7h1.2zm-3.8 2.7v-2.6h.7v-.5h-2.1v.5h.7v2.6h.7zm-2.7-3.2h-.6v3.2h.6v-3.2zm-2.2.3c-.3-.2-.6-.4-1-.4-.5 0-1 .4-1 .9 0 .4.2.7.8.9.2 0 .3.1.4.2.1.1.2.2.2.3 0 .3-.2.5-.5.4-.3 0-.6-.2-.7-.4l-.4.4c.2.4.7.6 1.1.6.6.1 1.1-.4 1.1-1 0-.5-.2-.7-1-1-.4-.1-.5-.2-.5-.4s.2-.4.5-.4c.2 0 .4.1.5.3l.5-.4zm-5 1.2v-1h.2c.4 0 .6.2.6.5s-.2.5-.6.5h-.2zm.8.3c.5-.1.8-.5.8-.9 0-.6-.4-.9-1.2-.9h-1v3.2h.6v-1.3h.1l.9 1.3h.8l-1-1.4zm-2.9-1.2v-.6h-1.8v3.2h1.8v-.5h-1.2V19h1.2v-.5h-1.2v-.7h1.2zm-5.5-.6h-.7l1.4 3.2h.3l1.4-3.3h-.7l-.9 2.1-.8-2zm-2 0h-.7v3.2h.7v-3.2zm-5.3 3.2h.6v-2.1l2 2.2h.4v-3.3h-.6v2.1l-2-2.2h-.4v3.3zm-3.7-3.2h-.7v2c0 .3.1.6.2.8.6.6 1.5.6 2.1 0 .2-.2.3-.5.2-.8v-2h-.6V19c0 .2 0 .4-.1.6-.2.3-.7.4-1 .2-.1 0-.1-.1-.2-.2-.1-.2-.1-.4-.1-.6l.2-1.8zm-3.8.9c-.4 0-.7.3-.6.7 0 .4.3.7.7.6.4 0 .6-.3.6-.7 0-.3-.3-.6-.7-.6m-4.3 1.1h-1l.5-1.1.5 1.1zm.2.5.3.7h.7l-1.4-3.2h-.5l-1.4 3.2h.7l.3-.7h1.3zm-4.8-1v-.9h.2c.4 0 .7.2.7.5s-.2.5-.6.5h-.3zm0 .5h.4c.7 0 1.1-.4 1.1-1 0-.3-.1-.6-.3-.8-.2-.2-.6-.3-.9-.2h-1v3.2h.6l.1-1.2zm-3 0h-1l.5-1.1.5 1.1zm.2.5.3.7h.7l-1.4-3.2H92l-1.4 3.2h.7l.3-.7H93zm-5.4-1.1v-1.4H87v3.2h.7V19l.1-.1 1.2 1.4h.8l-1.5-1.7 1.4-1.5h-.8l-1.3 1.5zm-2.1-.8v-.6h-1.8v3.2h1.8v-.5h-1.2V19h1.1v-.5h-1.1v-.7h1.2zm-3.4-.3c-.3-.2-.6-.4-1-.4-.5 0-1 .4-1 .9 0 .4.2.7.8.9.2 0 .3.1.4.2.1.1.2.2.2.3 0 .3-.2.5-.5.4-.3 0-.6-.2-.7-.4l-.3.5c.2.4.7.6 1.2.6.5.1 1.1-.3 1.1-.9v-.1c0-.5-.2-.7-.9-1-.4-.1-.5-.2-.5-.4s.2-.4.5-.4c.2 0 .4.1.5.3l.2-.5zm-4.3 1.7h-.9l.5-1.1.4 1.1zm.2.5.3.7h.7l-1.4-3.2H77l-1.4 3.2h.7l.3-.7H78zm-5-.8v1.4h.7v-1.4l1.2-1.7H74l-.7 1.1-.7-1.1h-.8l1.2 1.7zm-4.5-1.7h-.7v3.2h.7v-3.2zm-4.3 1.2v-1.2h-.6v3.2h.6V19h1.4v1.4h.6v-3.2h-.6v1.2h-1.4zm-2.6 2v-2.6h.7v-.5h-2.1v.5h.7v2.6h.7zm-2.7-3.2h-.7v3.2h.7v-3.2zm-2.1.3c-.3-.2-.6-.4-1-.4-.5 0-1 .4-1 .9 0 .4.2.7.8.9.2.1.3.2.5.3.1.1.2.2.2.3 0 .3-.2.5-.5.4-.3 0-.6-.2-.7-.4l-.4.4c.2.4.7.6 1.2.6.5.1 1.1-.3 1.1-.9v-.1c0-.5-.2-.7-1-1-.4-.1-.5-.2-.5-.4s.2-.4.5-.4c.2 0 .4.1.5.3l.3-.5zm-3.5.2v-.5h-1.8v3.2h1.8v-.5h-1.2V19h1.1v-.5h-1.1v-.7l1.2-.1zm-5.5-.5H47l1.4 3.2h.3l1.5-3.2h-.7l-.9 2.1-.8-2.1zm-2 0h-.6v3.2h.6v-3.2zm-5.3 3.2h.7v-2.1l2 2.2h.5v-3.2h-.6v2.1l-2-2.2h-.5l-.1 3.2zm-3.7-3.2h-.7v2c0 .3.1.6.2.8.3.3.7.5 1.1.5.4 0 .8-.2 1.1-.5.2-.2.3-.5.2-.8v-2H38V19c0 .2 0 .4-.1.6-.1.2-.4.3-.6.3-.2 0-.5-.1-.6-.3-.1-.2-.1-.4-.1-.6v-1.8zm-3.6 1.7v1.4h.7v-1.4l1.2-1.7h-.8l-.7 1.1-.7-1.1H32l1.2 1.7zm-2.4-1.7h-.7v3.2h.7v-3.2zm156.1-4.3h1.5V7.7l4.6 5.4h1V5.2h-1.5v5.2L187.9 5h-1v7.9zm-11.3-7.7H174l2.7 7.8h1.1l1.8-5 1.7 5h1l2.9-7.8h-1.6l-1.8 5.2-1.8-5.2h-.8l-1.9 5.3-1.7-5.3zm-7 1.2c1.5-.1 2.7 1.1 2.7 2.5.1 1.5-1.1 2.7-2.5 2.7s-2.7-1.1-2.7-2.5V9c-.1-1.4 1.1-2.6 2.5-2.6m0-1.4c-2.2 0-4 1.7-4.1 3.9V9c0 2.3 1.7 4.1 4 4.2 2.3 0 4.1-1.7 4.2-4 0-2.3-1.7-4.1-4.1-4.2.1 0 0 0 0 0m-7.2 7.9V6.5h1.7V5.2h-4.9v1.3h1.8v6.4h1.4zm-9.2-6.4V5.2H148v7.7h4.2v-1.3h-2.7v-2h2.6V8.2h-2.6V6.5h2.7zm-9.6 2.2V6.5h.5c1 0 1.5.3 1.5 1.1s-.5 1.1-1.4 1.1h-.6zm0 1.3h1c1.2.2 2.4-.7 2.6-2v-.5c0-.7-.3-1.3-.8-1.8-.6-.5-1.3-.7-2-.6h-2.2v7.7h1.5l-.1-2.8zm-5.9 0h-2.2l1.1-2.8 1.1 2.8zm.4 1.2.6 1.6h1.6L136.2 5H135l-3.3 7.9h1.6l.7-1.6h3.1zm-6.7-5.7c-.6-.3-1.2-.5-1.8-.5-2.2 0-4 1.7-4.1 3.9V9c0 2.2 1.8 4 4 4 .7 0 1.3-.2 1.9-.5v-1.7c-.4.5-1.1.8-1.8.8-1.4 0-2.5-1.1-2.6-2.5v-.2c-.1-1.4 1.1-2.6 2.5-2.6.7 0 1.4.3 1.9.9V5.5zm-12.6 1V5.2h-4v7.7h1.5V9.6h2.4V8.2h-2.4V6.5h2.5zm-10.3-.1c1.5-.1 2.7 1 2.8 2.5.1 1.5-1 2.7-2.5 2.8s-2.7-1-2.8-2.5v-.1c0-1.5 1.1-2.6 2.5-2.7.1 0 .1 0 0 0m.1-1.3c-2.2 0-4 1.9-3.9 4.1 0 2.2 1.9 4 4.1 3.9 2.2 0 3.9-1.8 3.9-4s-1.8-4-4.1-4M93.3 9.4v3.5h1.5V9.4l2.7-4.2h-1.8L94 7.9l-1.6-2.7h-1.8l2.7 4.2zm-5.2 3.5V6.5h1.7V5.2h-4.9v1.3h1.7v6.4h1.5zm-4.9-7.7h-1.5v7.7h1.5V5.2zm-3.9.7c-.6-.5-1.4-.8-2.2-.8-1.3-.1-2.4.9-2.4 2.1v.1c0 1.1.5 1.6 1.9 2.1.3.1.7.3 1 .4.3.2.5.5.4.8 0 .6-.5 1.1-1.1 1.1h-.1c-.7 0-1.3-.4-1.6-1l-1 .9c.6.9 1.6 1.5 2.7 1.5 1.4.1 2.5-.9 2.6-2.3v-.2c0-1.2-.5-1.8-2.2-2.4-.9-.3-1.2-.6-1.2-1s.5-.9 1.1-.9c.5 0 .9.2 1.2.6l.9-1zM68.9 8.7V6.4h.4c.9 0 1.4.4 1.4 1.2s-.5 1.2-1.4 1.2l-.4-.1zm1.7 1c1.1-.2 1.8-1.1 1.7-2.2 0-1.4-1-2.3-2.7-2.3h-2.2v7.7h1.5V9.8h.1l2.1 3.1h1.8l-2.3-3.2zm-5.5-3.2V5.2h-4.2v7.7h4.2v-1.3h-2.7v-2H65V8.2h-2.6V6.5h2.7zM53.5 5.2h-1.6l3.2 7.9h.8l3.3-7.9h-1.6l-2.1 5.2-2-5.2zm-3.3 0h-1.5v7.7h1.5V5.2zM39 12.9h1.5V7.7l4.7 5.4h1V5.2h-1.5v5.2L40 5.1h-1v7.8zm-7.2-7.7h-1.5v4.7c-.1.7.1 1.5.6 2.1 1.3 1.4 3.4 1.5 4.8.2.1-.1.2-.1.2-.2.4-.6.6-1.3.6-2.1V5.2H35v4.4c.1.5 0 1-.2 1.4-.3.5-.8.7-1.3.7s-1-.2-1.3-.7c-.2-.4-.3-.9-.2-1.4V5.2zM0 0h21.8v13.7c0 11-10.9 14.7-10.9 14.7S0 24.7 0 13.7V0z"/>
  <path class="st0" d="M21.5.3v13.4c0 10.1-9.5 13.9-10.6 14.3C9.8 27.6.3 23.9.3 13.7V.3h21.2z"/>
  <path d="M20.6 13.7c0 8.8-7.7 12.5-9.6 13.3-2-.8-9.6-4.5-9.6-13.3V1.3h19.3v12.4z"/>
  <path d="M10.9 26.7c-2.1-.9-9.3-4.5-9.3-12.9V1.6h18.6v12.1c0 8.4-7.2 12.1-9.3 13"/>
  <path class="st0" d="M11 10.6c.4 0 .7.3.7.6v.1c0 .1 0 .2-.1.3h-.1c0-.1 0-.1.1-.2v-.2c0-.2-.2-.6-.4-.6H11c-.1 0 .1.1.2.2s.2.2.2.4c0 .1-.1.3-.2.3h-.6c-.1 0-.1-.2-.1-.2v-.1c-.1-.3.2-.6.5-.6"/>
  <path class="st0" d="M11 10.1c.1 0 .3 0 .4.1l.1.1c.1.1.1.2.1.3v.1c-.2-.2-.4-.3-.7-.3-.2 0-.4.1-.6.2v-.1c.1-.2.4-.4.7-.4m1-.1c.5.1 1 .2 1.4.5h-.1c-.4 0-.7.1-1.1.1 0-.2-.2-.5-.2-.6m-2.1 0h.1c-.1.2-.2.4-.3.7h-.1c-.4 0-.8-.1-1.2-.2.5-.2 1-.4 1.5-.5"/>
  <path class="st0" d="M11.5 9.9h.2c.2.1.4.5.4.6V10.8c0 .2-.1.4-.2.5 0-.2-.1-.4-.1-.7 0-.4-.3-.7-.7-.7-.4 0-.7.3-.8.7v.2c-.1.1-.1.3-.1.5-.1 0-.2-.3-.2-.4v-.1c0-.3.2-.8.5-.9h1zm-2.3-.2c.1 0 .1.2.1.2s-.1.1-.2.1c-.1.1-.3.1-.4.1l-.5.2c-.1-.1-.1-.1-.1-.2 0 0 1-.4 1.1-.4m3.5 0c.1 0 1.1.3 1.1.5s-.1.2-.1.2c-.2-.1-.3-.1-.5-.2s-.4-.1-.6-.2c0 0-.1 0-.1-.1.1 0 .1-.2.2-.2m-4.4-.2c0 .1.1.2.1.2 0 .1-.3.2-.3.2-.1 0-.1-.1-.2-.2 0 0 .3-.2.4-.2m5.3 0 .4.2c0 .1-.1.2-.1.2s-.4-.1-.4-.2.1-.2.1-.2m-2.5 0h.3c.4 0 .8.1 1.1.2v.1c0 .1-.1.2-.1.2s-.4-.1-.5-.1H11v-.3c.1 0 .1-.1.1-.1m-.2 0v.1c0 .2-.1.2-.2.2h-.2c-.2 0-1 .2-1.1.2s-.1-.2-.1-.3l.3-.1c.3-.1.6-.1.9-.1h.4zm1-.4c.5.1 1.1.2 1.5.4 0 .1-.1.2-.1.2l-.9-.3c-.2 0-.4-.1-.6-.1v-.1c.1 0 .1-.1.1-.1m-1.9 0c0 .1.1.2.1.2 0 .1-.1.1-.2.1s-.4.1-.6.1-.5.2-.8.3c0-.1-.1-.2-.1-.2 0-.1.3-.2.3-.2.4-.2.9-.3 1.3-.3m1.4-.1h.4V9.3h-1.6c0-.1-.1-.1-.1-.2V9c.1 0 .3 0 .4-.1l.9.1zM9 8.8c0 .1 0 .1.1.2v.1l-1.2.4c0-.1-.1-.1-.1-.2l.2-.1c.3-.2.7-.3 1-.4m3.9 0c.4.1.9.3 1.2.5 0 .1 0 .1-.1.2 0 0-.5-.2-.8-.3-.1 0-.3-.1-.4-.1l-.1-.1c.2 0 .2-.1.2-.2M8 8.7c0 .1.1.1.1.2s-.3.2-.4.2c0 0-.1-.1-.1-.2.1-.1.3-.2.4-.2m5.9 0c.1 0 .3.1.4.2l-.1.2c-.1 0-.3-.1-.4-.2v-.2c0 .1.1 0 .1 0m-2.7-.1h.5c.4 0 .7.1 1.1.2 0 .1 0 .2-.1.2h-.6c-.3 0-.8-.1-.9-.1H11l-.1-.1v-.1c.1-.2.2-.2.3-.1m-.3 0c.1 0 .1.1 0 .2h-.2c-.3 0-1.4.2-1.5.2 0-.1-.1-.1-.1-.2v-.1c.4-.1.8-.2 1.2-.2l.6.1m2.5-.1s.4.1.4.2-.1.2-.1.2c-.1 0-.2-.1-.3-.1V8.5m-4.9 0 .1.2v.1c-.1.1-.2.1-.3.1-.1 0-.1-.2-.1-.2.1-.1.2-.1.3-.2m3.5-.3.4.1s0 .2-.1.2H12s-.1 0-.1-.1c.1-.1.1-.1.1-.2m-2.1 0c.1 0 .1.2.1.2s-.4.1-.5.1c0-.1 0-.1-.1-.2.1-.1.4-.1.5-.1m1.6 0c.1 0 .4 0 .4.1v.2h-.4V8.2m-1.2 0h.1c0 .1.1.1.1.2v.1c-.1 0-.2.1-.2.1h-.2v-.3l.2-.1m3.2-.1c.3.1.7.2 1 .4 0 .1-.1.2-.1.3-.3-.1-.6-.3-1-.4s.1-.3.1-.3m-5.1 0 .1.3c-.2 0-.5.2-.5.2s-.3.1-.4.1c0-.1-.1-.2-.1-.2.3-.2.6-.4.9-.4m3.2-.4c.1 0 .8.1 1 .1v.1s0 .2-.1.2l-1-.1v-.2c0-.1 0-.1.1-.1m-1.3 0h.2V8l-1 .1c0-.1 0-.2-.1-.2v-.1c.3-.1.6-.1.9-.1m-.3-.8h2c.1 0 .2.1.2.2H9.7c0-.1.2-.2.3-.2m.2-.2h1.6s.1 0 .1.1h-.1l-1.6-.1c-.1.1-.1.1 0 0m.2-.2h1.2l.1.1v.1h-1.3s-.1 0 0-.2c-.1 0-.1 0 0 0m.3-.3h.8c.1 0 .1 0 .1.1s0 .1-.1.1h-.9l-.1-.1s.1-.1.2-.1m-.3-.3c.2 0 .4.1.6.1.2 0 .4 0 .5-.1 0 .1-.1.1-.1.2H10.5c0-.1 0-.2-.1-.2zm-.8-.5c.1 0 .2.1.2.2l-.2-.2m.4-.1c.1 0 .2.2.3.3-.1 0-.3-.1-.3-.3 0 .1 0 0 0 0m.4 0c.1 0 .2.2.2.3 0 0 0 .1-.1.1s-.2-.2-.2-.3 0-.1.1-.1m1.7 0c.1.1-.1.3-.2.3h-.1c.1 0 .2-.3.3-.3m-.3 0c0 .1 0 .1 0 0 .1.1-.1.4-.2.4h-.1c0-.1.1-.4.3-.4m-.4 0c.1 0 .1.1.1.1l-.1.3-.1-.2s-.1-.2.1-.2m-.4 0c.1 0 .1.2.1.2s0 .2-.1.2-.1-.3-.1-.3 0-.1.1-.1m-.3 0c.1 0 .1.1.1.2s0 .2-.1.2-.2-.3-.2-.3.1-.1.2-.1m-2.2-.9c.1 0 .1.2.1.2 0 .3-.3.4-.5.4-.3-.1-.7-.3-.9-.6h1.3z"/>
  <path class="st0" d="M13.3 4.4c-.2.4-.4.6-.8.8l-.1-.1s-.1.1-.2.1h-.8l-.2.1-.2-.1h-.3l-.2.1h-.3l-.2-.1H9.7l-.2.1s-.1 0-.1-.1c-.2-.1-.4-.2-.5-.4-.1-.1-.2-.4-.2-.4h4.6zm.5-.2v.1H8.6v-.1h5.2zM6.7 4c.1 0 .1.2.3.2h1.4v.1H6.8c-.1 0-.2-.1-.2-.2s.1-.1.1-.1m5-.3c.1.1.3.2.4.3l-.1.1c-.1-.1-.3-.2-.3-.4m-.6 0c.1 0 .1.2.1.2 0 .1-.1.1-.1.2C11 4 11 4 11 3.9s.1-.2.1-.2m.2-.1c.1 0 .3.3.3.3s0 .1-.1.1-.2-.2-.2-.4c0 .1 0 .1 0 0m-.7 0c-.1.2-.2.4-.3.4h-.2c.2-.1.3-.2.5-.4m.3 0c0 .1-.1.4-.2.4 0 0-.1 0-.1-.1 0 0 .2-.3.3-.3m-.3-.2h1v.1c0 .1 0 0-.1 0l-.9-.1"/>
  <path class="st0" d="M14.5 3.3c.4 0 .9.2.9.7s-.8 1-1.2 1c-.2 0-.4.1-.6.1-.4 0-.7.2-1 .4 0-.2.6-.4.6-.4.5-.1.9-.2 1.4-.4.3-.1.5-.4.6-.7 0-.3-.4-.4-.6-.4-.2 0-.4.1-.5.2h.1l.1.1c-.1 0-.3.1-.4.1-.1 0-.3-.1-.3-.2s0-.1.1-.2c.2-.2.5-.4.8-.3m-3.4-.5c.1 0 .2.1.2.2s-.1.2-.2.2-.2-.1-.2-.2.1-.2.2-.2m-1.5-.4c-.2.2-.3.2-.5.3s0 .3-.2.3l-.3-.1c-.1 0-.1 0-.2.1.1.1.2.2.2.3v.1s-.3.2-.4.2h-.3c-.1 0-.2.1-.3.2 0-.1-.1-.2-.1-.2l.2-.1H8c.1 0 .2-.1.3-.2-.1-.3-.4-.3-.4-.5s.2-.2.3-.2l.5.1c.1 0 .2-.1.4-.2.1 0 .2-.1.3-.1h.2M11 19.9c.2 0 .3.1.4.3v1.9s0 .2.1.2c.1.3.3.5.7.5 1.1-.3 2.1-.8 2.9-1.6l-.2-.2s-.1-.1-.1-.2l.9-.6.3-.2c.1-.1.2-.2.4-.2.1 0 0 .4 0 .4l-.1.4-.1.3c0 .2-.1.5-.2.7l-.1.1c-.2 0-.5-.3-.5-.3-.4.3-.7.6-1 .9-.2.2-.4.3-.5.4-.3.3-2.2 1.8-2.9 1.8S8.3 23 8 22.7c-.1-.1-.3-.3-.5-.4-.3-.3-.7-.6-1-.9-.1 0-.3.3-.5.3v-.1c-.1-.2-.2-.5-.2-.7l-.1-.3s-.1-.3-.1-.4-.1-.4 0-.4.3.1.4.2l.4.2.9.6c0 .1-.1.2-.1.2-.2.1-.2.2-.3.3.8.8 1.8 1.3 2.9 1.6.3 0 .6-.2.7-.5 0-.1.1-.2.1-.2v-1.9c0-.2.1-.3.3-.3h.1zm-4.9-5.5v4s.4.3 2-.1c.9-.3 1.9-.3 2.8.2v-4.1s-.8-.7-2.7-.2c-.6.2-1.2.3-1.8.3-.4-.2-.3-.1-.3-.1m4.7 5.1h-.1c0-.2.1-.3.1-.5.1.2.1.4 0 .5m.1-.5s0 .1.1.1v.5h-.1V19m-.2 0c0 .2-.1.4-.1.5h-.1v-.1c.1-.1.2-.3.2-.4m-.1-.1c0 .1-.1.3-.2.4 0 0-.1 0-.1-.1.2-.1.3-.2.3-.3m0-.1-.2.3c-.1 0-.1-.1-.1-.1s.2-.2.3-.2m5.2-4.4v4s-.4.3-2-.1c-.9-.3-1.9-.3-2.8.2v-4.1s.8-.7 2.7-.2c.6.2 1.2.3 1.8.3.4-.2.3-.1.3-.1m-4.7 5.1h.1c0-.2-.1-.3-.1-.5v.5m.1-.5c0 .1.1.4.1.5h.1v-.1c-.1-.1-.1-.3-.2-.4m.1-.1c.1.1.1.3.2.4 0 0 .1 0 .1-.1-.2-.1-.3-.2-.3-.3m4.7-4.4v4.1-.1l-.1-.1v-4l.1.1zm.2.1v4.2l-.1-.2v-4.2l.1.2zm.1.1V19l-.1-.1.1-4.2zm-4.9 4.1.2.3c.1 0 .1-.1.1-.1l-.3-.2"/>
  <path class="st0" d="M16.4 14.8h.2v4.5h-4.8c-.2.3-.5.5-.8.5-.3 0-.6-.2-.8-.5H5.3v-4.5h.2v4.4h4.6v.1c.2.5.8.6 1.2.4.2-.1.3-.2.4-.4v-.1h4.7v-4.4zM7.5 4c0-.1.1-.1 0 0l.1-.1s.1 0 .1.1c0 0 0 .1-.1.1L7.5 4m4.9 1.4c-.1 0-.2.1-.2.2h.1s.2-.2.1-.2c.1 0 0 0 0 0M11 14.2l-.4-.2v-.3c0-.2.1-.3.3-.3h.1c.2 0 .3.1.4.3v.3l-.4.2zM8.2 11.8h.6v.9l-.6-.1v-.8zm-1 .1h.9v.6l-.9-.1v-.5zm0 0-.2.2v.4l.2-.1v-.5z"/>
  <path d="M8.5 11.9c.1 0 .1.1.1.1 0 .1-.1.1-.1.1s-.1 0-.1-.1.1 0 .1-.1c0 .1 0 0 0 0m0 .3c.1 0 .1.1.1.1 0 .1-.1.1-.1.1s-.1 0-.1-.1.1 0 .1-.1c0 .1 0 .1 0 0"/>
  <path class="st0" d="m7.2 12.4.9.1v.1L7 12.5l.2-.1zm1 .2.6.1v.1l-.6-.1v-.1zm.7.1 2 .4v.1l-2-.3v-.2zm4.8-.9h-.6v.9l.6-.1v-.8zm1 .1h-.9v.6l.9-.1v-.5z"/>
  <path d="M13.3 11.9c.1 0 .1.1.1.1l-.1.1s-.1 0-.1-.1.1 0 .1-.1c0 .1 0 0 0 0m0 .3c.1 0 .1.1.1.1l-.1.1s-.1 0-.1-.1.1 0 .1-.1c0 .1 0 .1 0 0"/>
  <path class="st0" d="m14.7 12.4-.9.1v.1l.8-.1.1-.1zm-1 .2-.6.1v.1l.6-.1v-.1zM11 13l-2-.4v-.7h4v.7l-2 .4zm2-.3-2 .4v.1l2-.3v-.2z"/>
  <path d="M11.8 15.4c.2 0 .4.1.4.3 0 .1-.1.2-.1.2.1.1.2.2.2.3s-.3.3-.5.3h-.4l.1-.1v-.9l-.1-.1h.4m1.2 0c.3 0 .5.2.5.5s-.2.6-.5.6-.5-.3-.5-.5c-.1-.3.1-.5.5-.6m.6.1c.4 0 .3.3.6.6.1-.1.1-.2.1-.3 0-.1 0-.1-.1-.2.1 0 .2 0 .3.1-.2.1-.1.3-.1.4s0 .4-.1.6c-.2-.3-.4-.5-.5-.8 0 0-.1.4-.1.5 0 .1.1.2.1.2h-.3c.1 0 .1-.3.1-.4s.1-.4.1-.5c-.1 0-.1-.1-.1-.2 0 .1 0 .1 0 0m1.2.1h.4v.1c0 .1.1.2.1.4s.1.4.2.5h-.4v-.1s0-.2-.1-.2h-.2c0 .1-.1.1-.1.2v.1h-.3l.1-.1c.1-.3.2-.5.3-.9 0 .1 0 0 0 0"/>
  <path class="st0" d="M13 15.5c.1 0 .2.1.2.3v.2s0 .5-.3.5-.2-.3-.2-.4 0-.6.3-.6m1.9.5.2.2h-.2V16m-3.1 0c.1 0 .2.1.2.2s-.1.2-.2.2h-.1v-.3c0-.1.1-.1.1-.1m0-.5c.1 0 .2 0 .2.2s-.1.2-.2.2h-.1v-.3c0-.1.1-.1.1-.1"/>
  <path d="M9.9 15.4h.3v.3c-.1 0-.1-.2-.2-.2h-.1c-.1 0-.2 0-.2.1 0 .2.6.2.6.6 0 .2-.1.3-.3.3l-.3-.1c0-.1-.1-.1-.1-.2v-.1c.1.2.2.3.4.3.1 0 .1-.1.1-.1 0-.2-.6-.3-.6-.6s.2-.3.4-.3m-.7.1.1.3c-.1 0-.1-.1-.1-.2-.1 0-.1 0-.2-.1 0 0-.2 0-.2.1v.2s0 .2.1.2.1-.1.2-.1V16.2c-.1 0-.1-.1-.2-.1s-.1 0-.1.1v.4c0 .1.1 0 .1 0 .2 0 .3-.1.4-.2V16.7c-.2 0-.4.1-.6.1h-.3s0-.1.1-.1V15.9c0-.1-.1-.1-.1-.2l.8-.2m-1.3.1c.2 0 .4.1.4.3s-.1.4-.5.4c-.1 0 0 .1 0 .1 0 .1 0 .2.1.2 0 0 .1 0 .1.1s-.2 0-.2.1-.2 0-.2 0v-1c0-.1 0-.1-.1-.2.1.1.3 0 .4 0m-1.1.1h.4v.3c0 .1-.1-.1-.1-.2-.1 0-.1 0-.3-.1 0 .1-.1.1-.1.2s.4.3.4.4.1 0 .1.1c0 0 0 .1.1.1v.1c0 .1-.1.1-.1.2-.1 0-.1.1-.2.1l-.2-.1h-.1V16.5c.1.1.2.3.3.3.1 0 .1-.1.2-.1 0-.2-.6-.2-.6-.6 0-.2.1-.3.3-.3"/>
  <path class="st0" d="M7.9 15.7c.2 0 .2.2.2.2s-.1.3-.2.3-.1 0-.1-.1v-.3s0-.1.1-.1"/>
  <path d="M10.9 26.7c-2.1-.9-9.3-4.5-9.3-12.9v-.9c.5-.2 1.7-.5 2.2-.7.7-.2 1.4-.1 2.1.2 1.4.6 2.9.9 4.4 1.1.1 0 0 .4 0 .4h-.2c-.3 0-.5 0-.8-.1-.4 0-.7.1-1.1.1l-.5.1c-.3.1-.7.2-1.1.2l-.4-.1h-.3c-.1 0-.5.3-.6.4s-.2 0-.2.1v4.7H10c.1 0 .3.4.3.4v2.1l-.1.2c0 .1-.1.2-.2.3-.1.1-.2.2-.4.2-1-.3-1.8-.8-2.6-1.5 0 0 .3-.3.3-.4s-.3-.3-.4-.3l-.2-.1-.5-.3c-.1-.1-.6-.5-.8-.5s-.2.2-.2.2v.5s.1.3.1.5.1.4.2.6c0 0 .2.4.3.4s.5-.3.5-.3.6.7.7.8l.6.6c.2.2.7.5 1 .8l.4.2.6.4c.1.1.2.1.3.1.3.2.6.3.9.4h.2c.3-.1.7-.2.9-.4.1 0 .2-.1.3-.1s.4-.2.6-.4l.4-.3c.4-.3.7-.5 1-.8l.6-.6c.2-.2.4-.4.5-.4s.5.3.5.3l.3-.4c.1-.2.1-.4.2-.6s.1-.5.1-.5v-.6c0-.1-.1-.2-.2-.2s-.7.4-.8.5l-.4.3-.2.1s-.4.2-.4.3.3.4.3.4c-.7.7-1.6 1.2-2.6 1.5-.2 0-.3 0-.4-.2-.1-.1-.2-.2-.2-.3l-.1-.2v-2.1l.3-.4h4.8v-4.7c0-.1-.2-.1-.3-.1s-.4-.4-.5-.4h-.4c-.1 0-.3.1-.4.1-.3-.1-.7 0-1-.2-.1-.1-.3-.1-.5-.1-.3-.1-.7-.1-1-.2h-1v-.4c1.5-.1 3-.5 4.4-1 .6-.3 1.4-.4 2.1-.2.5.1 1.7.5 2.1.7v.9c.3 8.2-7 11.9-9.1 12.8" fill="#2b8cbe"/>
  <path class="st0" d="m5.7 18.8-.1.2v-4.3l.1-.1v4.2zm.4-4.4v4l-.1.2v-4.1l.1-.1zm-.2.1v4.1l-.1.2v-4.2l.1-.1zm0 4.4.3.1h1.4l.4-.1.7-.2c.2 0 .4-.1.6-.1.4 0 .8 0 1.1.2-.3-.2-.7-.3-1.1-.2-.2 0-.3 0-.5.1h.5c.3 0 .7 0 1 .2-.3-.2-.7-.2-1-.2-.2 0-.4 0-.6.1l-.7.1-.4.1c-.5.1-.9.1-1.4 0 0 0-.1 0-.3-.1zm.2-.4c.5.1 1 .1 1.5 0l1-.2c.3-.1.5-.1.8-.1.5 0 .9.1 1.3.3-.4-.2-.8-.4-1.3-.3-.3 0-.5 0-.8.1l-1 .2c-.4.2-.9.2-1.5 0zm-.1.2c.1 0 .3.1.4.1.4.1.8 0 1.2-.1l1-.2c.2-.1.5-.1.7-.1.4 0 .8.1 1.2.3-.3-.2-.7-.3-1.1-.3-.2 0-.5 0-.7.1l-1 .2c-.4.1-.8.1-1.2 0-.2.1-.4 0-.5 0zm9.9.3c-.5.2-1.1.2-1.7.1l-.3-.1-.7-.1c-.5-.1-1.1-.1-1.6.2.3-.2.7-.2 1-.2h.5c-.5-.1-1-.1-1.5.2.3-.2.7-.2 1.1-.2.2 0 .4 0 .6.1l.7.2.3.1c.5.1.9.1 1.4 0l.2-.3.2-.1-.2.1m-.1-.5c-.5.2-1 .2-1.5 0l-1-.2c-.7-.2-1.4-.1-2 .2.4-.2.8-.4 1.3-.3.3 0 .5 0 .8.1l1 .2c.4.1.9.1 1.4 0zm.2.2c-.5.2-1.1.2-1.7.1l-1-.2c-.6-.2-1.3-.1-1.8.2.3-.2.7-.3 1.1-.3.2 0 .5 0 .7.1l1 .2c.4.1.8.1 1.2.1.2-.1.4-.1.5-.2z"/>
</svg>