<svg class="uctround" version="1.1" id="Layer_1" xmlns="http://www.w3.org/2000/svg" xmlns:xlink="http://www.w3.org/1999/xlink" x="0" y="0" viewBox="0 0 371.86 377.46" xml:space="preserve">
  <style>
    .st2{fill:#fff}
  </style>
    <g>
      <path d="M93.88 83.35h178.48v112.87c0 90.55-89.24 120.73-89.24 120.73s-89.24-30.18-89.24-120.61V83.35" clip-path="url(#SVGID_00000117676315883095677460000004119676369535542462_)"/>
      <path d="M269.74 85.98v110.24c0 83.49-77.65 114.63-86.62 117.95-8.97-3.32-86.62-34.45-86.62-117.82V85.98h173.24z" clip-path="url(#SVGID_00000117676315883095677460000004119676369535542462_)" fill="#fff"/>
      <path d="M261.86 196.22c0 72.42-62.8 102.93-78.74 109.49-15.94-6.56-78.74-37.06-78.74-109.36V93.85h157.48v102.37z" clip-path="url(#SVGID_00000117676315883095677460000004119676369535542462_)"/>
      <path d="M183.12 302.86C165.85 295.55 107 265.47 107 196.35V96.48h152.23v99.74c.01 69.24-58.85 99.33-76.11 106.64" clip-path="url(#SVGID_00000117676315883095677460000004119676369535542462_)"/>
      <path d="M183.8 170.76c3.55 0 5.59 2.61 5.59 5.63 0 .77-.23 2.2-.89 2.84h-.37s-.12.01-.12-.25.29-.83.39-1.25c.11-.5.15-1.28.15-1.54 0-1.65-1.35-4.5-3.29-4.5h-1.48c-.27 0-.3.2-.5.38.23.87 1.03.81 1.66 1.39.93.87 1.35 2.34 1.35 3.24 0 .7-.62 2.64-1.79 2.64h-4.71c-1.01 0-1.25-1.6-1.25-2.02 0-.25-.22-.56-.22-.82-.01-2.9 2.26-5.74 5.48-5.74" clip-path="url(#SVGID_00000117676315883095677460000004119676369535542462_)" fill="#fff"/>
      <path d="M184.28 166.43c.67 0 2.56.36 3.01.98.22.29.7.47.7.72 0 .03 1.18 1.89 1.17 2.39v1.17c-2.04-1.69-3.49-2.17-5.36-2.17-1.72 0-3.21.6-4.91 1.96-.04-.15-.15-.1-.15-.36s.18-.52.25-.74c.79-2.56 2.91-3.95 5.29-3.95M192.33 165.92c3.69.6 7.71 1.84 11.57 3.87-.24.15-.49.3-.69.32-2.99.38-6.03.76-9.06.96-.67-1.57-1.96-4.64-1.96-4.9 0-.26.01-.14.14-.25M175.14 165.81l1.12.13c-1.2 1.76-1.94 3.6-2.38 5.65h-1.63c-2.05.01-8.42-1.14-9.52-1.59 3.97-2.44 8.44-3.32 12.41-4.19" clip-path="url(#SVGID_00000117676315883095677460000004119676369535542462_)" fill="#fff"/>
      <path d="M187.51 165.19c.54.1 1.24.03 1.84.24 1.41.5 2.83 3.8 2.83 4.98 0 .26.1.6.21.94-.12.13-.1.19.01 1.44-.1 1.19-.53 3.03-1.79 4.08-.13-3.28-.57-2.46-.46-5.53.04-1.14-.44-2.63-1.57-3.82-1.51-1.61-2.69-1.91-4.29-1.91-3.83 0-6.4 3.23-6.4 5.83 0 .26-.12.33-.15.43-.06.41.02.83-.04 1.23-.19 1.25-.83 2.47-.69 3.75-.83-.02-1.49-2.5-1.49-3.19 0-.26-.22-.62-.22-.88 0-2.3 1.91-7.03 3.92-7.49l8.29-.1zM168.96 163.22c.51 0 .86 1.91.86 1.91 0 .79-.72.57-1.43.9-1.02.47-2.17.78-3.23 1.13-1.29.46-2.68 1.11-4 1.74-.44-.51-.9-1.5-.9-2.01 0-.9 8.34-3.67 8.7-3.67M197.62 163.12c.58 0 9.08 2.82 9.08 3.82 0 .36-.61 1.76-.91 1.76-.27 0-2.47-1.02-3.68-1.53-1.46-.62-3.14-1-4.73-1.61-.46-.17-.46-.55-.46-.68 0-.07.3-1.76.7-1.76M161.74 161.88c.34.64.78 1.81.78 2.06 0 .42-2.27 1.34-2.75 1.45-.1-.07-1.01-1.78-1.01-2.06-.01-.39 2.14-1.45 2.98-1.45M205.14 161.78c.3 0 3.06 1.24 3.06 1.65 0 .26-.54 1.31-.89 1.96-.2-.04-3.09-.97-3.09-1.65 0-.33.65-1.96.92-1.96M184.82 161.16c.26 0 .43.02 2.47.1 2.92.1 6.17.71 9.28 1.67v.54c.01.44-.38 1.62-.75 1.62-.27 0-2.96-.71-4.36-.91-1.28-.2-2.69-.24-3.98-.44l-3.24-.11c-.12-.11-.23-.21-.35-.34v-1.68c.15-.2.66-.45.93-.45M183.02 161.16c.23.33.36.77.36 1.03 0 1.52-.55 1.55-2.01 1.55H180c-1.71 0-8.21 1.44-8.94 1.44-.57 0-.92-1.39-.92-1.8 0-.26.01-.35.16-.54.74-.24 1.6-.44 2.47-.63 2.33-.51 4.73-.67 7.1-.95l3.15-.1zM191.48 157.95c1.16 0 12.52 2.53 12.52 3.57 0 .53-.72 1.95-.9 2.12-2.29-.73-4.62-1.54-7.02-2.15-1.61-.4-3.69-.42-5.3-1.18.1-1.17.12-1.23-.01-1.37.14-.22.1-.99.71-.99M175.71 157.95c.5.59.46 1.49.46 2.06 0 .63-.81.55-1.34.65-1.71.31-3.58.6-5.26 1.13-1.9.59-4.33 1.53-6.27 1.93-.35-.64-.78-1.7-.78-1.95 0-.73 2.26-1.24 2.4-1.28 3.41-1.17 7.33-2.12 10.79-2.54M186.64 157.43c.26 0 2.17.21 3.26.34.23.19.35.38.35.64s-.11.75-.22 1.02c.09.08-.05.54-.12.88-2.72-.09-3.76-.3-4.02-.3h-5.13c-.27 0-2.38.21-3.58.31-.39-.43-.46-1.25-.46-1.76 0-.26.01-.49.13-.68 1.09-.24 3-.46 3.27-.46h6.52zM167.19 156.09c.27 0 .37.02.44.14.15.52.48 1.32.47 1.59v.63l-9.74 3.53c-.45-.64-.79-1.6-.79-1.86 0-.41 1.28-1 1.43-1.06.66-.32 6.52-2.97 8.19-2.97M199.39 155.99c.64 0 10.21 3.22 10.21 4.03 0 .26-.43 1.21-.69 1.73-.07.1-.11.13-.38.13s-4.44-1.76-6.74-2.56c-.93-.32-2.09-.49-3.02-.89-.24-.1-.35-.38-.35-.63s.33-1.16.59-1.67c.09-.04.11-.14.38-.14M159.18 155.16c.27 0 .28.11.37.15.26.5.59 1.46.59 1.71 0 .45-2.63 1.52-3.08 1.65-.21-.23-.89-1.66-.89-2.02.01-.27 2.81-1.49 3.01-1.49M207.5 154.95c.43 0 3.39 1.47 3.39 1.81 0 .42-.6 1.81-.97 1.81-.27 0-2.12-.93-3.2-1.39-.11-.07-.13-.11-.13-.37s.32-.93.32-1.19c0-.25.32-.67.59-.67M185.57 153.72c.27 0 1.74.02 3.88.2 1.43.14 8.76 1.28 8.76 2.02 0 .53-.26 1.49-.68 2.11-1.54-.31-3.15-.65-4.65-.9-2.24-.36-6.61-.75-6.88-.75h-1.51c-.23-.11-.36-.34-.47-.56 0-.11.11-.21 0-1.04.02-1.2.72-1.08 1.55-1.08M182.56 153.72c.26 0 .32.1.66.23.01.13.15.34.14 2.12-.12.12-.22.22-.35.34h-1.94c-2.54 0-11.32 1.65-11.97 1.76-.24-.55-.56-1.43-.56-1.69v-.66c3.05-1 6.41-1.47 9.6-1.77 1.82-.19 4.15-.33 4.42-.33M203.17 153.52h.45c.16-.01 2.75.91 2.75 1.29 0 .41-.59 1.8-1.02 1.8-.27 0-1.75-.51-2.6-.87-.1-.04-.25-.27-.25-.53.01-.26.44-1.15.67-1.69M163.43 153.51c.32 0 .8 1.9.8 1.96 0 .26-.02.3-.13.36-.97.46-2.6 1.09-2.88 1.09-.36 0-.96-1.86-.96-2.02 0-.23 3.02-1.39 3.17-1.39M191.99 150.83h.77c.27 0 1.85.41 2.74.63.01.14.12.09.12.34 0 .28-.39 1.91-.74 1.91-.27 0-1.91-.29-2.86-.45-.2-.03-.48-.37-.48-.64 0-.25.21-1.14.45-1.79M174.72 150.83c.43 0 .59 1.66.59 1.8 0 1.08-3.18 1.09-3.73 1.08-.24-.54-.46-1.54-.46-1.8 0-.55 3.16-1.08 3.6-1.08M187.48 150.42c.38-.01 3.52-.33 3.52.87 0 .26-.11 1.04-.23 1.58-.23.12-.63.12-.9.12-.84 0-1.78.04-2.58-.36-.15-.18-.16-.42-.16-.67 0-.26.11-1 .35-1.54M178.27 150.42h1.2c.32.53.35 1.1.35 1.49 0 .25 0 .33-.09.55-.44.38-1.37.53-1.91.53h-1.53c-.12-.55-.34-1.44-.34-1.7 0-.83 1.6-.88 2.32-.87M204.39 149.89c.3 0 8.01 2.81 8.01 3.36 0 .25-.54 1.36-1 2.11-2.62-1.14-5.19-2.18-7.77-3.16-.04-.08-.15 0-.15-.25-.01-.2.5-2.06.91-2.06M162.52 149.89c.4 0 .86 2.12.86 2.12 0 .26-.24.35-.35.42-1.51.55-4.21 1.7-4.49 1.7-.26 0-2.24.9-2.87 1.13-.35-.64-.89-1.75-.89-2-.01-.77 7.52-3.37 7.74-3.37M188.26 146.69c.81 0 6.8.86 7.76 1.06.12.09.25.23.25.49 0 .42-.24 1.76-.86 1.97l-7.85-1.16c-.11-1.27 0-1.84 0-2.1s.44-.26.7-.26M178.17 146.71s1.32.21 1.39.32c.04.22.15 1.31.15 1.57s-.22.44-.34.62c-2.71.26-5.51.57-8.33.98-.24-.65-.46-1.65-.46-1.9 0-.26.01-.34.13-.53 1.04-.29 6.75-1.08 7.46-1.06M175.79 140.49l16.52.05c.53-.13 1.57.71 2.01 1.33v.29h-20.83c.16-.99 1.55-1.69 2.3-1.67M177.07 138.84l13.48.09c.02.14.78.38.77.71-.24.12-.48.23-.69.23l-14.21-.11c-.13-.11-.14-.1-.14-.36 0-.47.39-.38.79-.56M178.9 136.88l9.79.09c.23.04.8.36.8.63 0 .26-.35.4-.36.65l-9.91-.03c-.53-.15-1.01-.11-1.01-.67 0-.35.25-.62.69-.67M181.01 134.81l6.1.05c.53.06.99.32.99.78 0 .23-.1.49-.59.52l-7.46-.02c-.27-.08-.82-.66-.87-.87.44-.51 1.31-.46 1.83-.46M179.19 131.72c2.14.26 3.27.61 4.88.61 1.32 0 2.44-.35 4.45-.61v.44c.01.26-.53 1.17-.8 1.67-.52.15-1.28.26-1.55.26h-6.03c-.12-.11-.18-.32-.28-.37-.24-.49-.68-1.38-.67-1.63v-.37zM172.62 127.37c.7 0 1.96 1.17 1.92 1.85h-.57c-.44.01-1.89-1.07-1.89-1.39 0-.26.26-.46.54-.46M175.41 127.27c1.14 0 2 1.94 2.26 2.54-.12.14-.11.25-.37.25-.94 0-2.53-1.62-2.53-2.27 0-.44.43-.52.64-.52M178.53 127.17c1.09 0 1.29 2.05 1.29 2.33 0 .28-.3.75-.59.87-.49-.12-1.34-1.66-1.34-2.32 0-.55.14-.88.64-.88M192.56 127.06c.49 0 .49.45.49.51 0 .63-1.34 1.92-1.87 2.17h-.47c-.11-.12-.13-.05-.13-.31-.01-.33 1.12-2.37 1.98-2.37M189.93 127.06c.5 0 .64.41.64.61 0 .35-1.24 2.38-1.99 2.38-.5 0-.48-.45-.48-.52 0-.47.9-2.47 1.83-2.47M186.65 127.06c.64 0 .91.81.91 1.08 0 .41-.59 2.42-1.29 2.42-.78 0-.64-1.4-.64-1.45 0-.46.01-2.05 1.02-2.05M183.96 127.06c.86 0 .92 1.21.92 1.54 0 .35-.17 1.96-.86 1.96-.85 0-.96-2.09-.96-2.17-.01-.59.12-1.33.9-1.33M181.17 127.06c.9 0 1.23 1.16 1.23 1.7 0 .28-.32 1.71-.75 1.71-.89 0-1.29-2.3-1.29-2.38 0-.46.16-1.03.81-1.03M163.24 119.93c.83-.09.89 1.26.89 1.55 0 2.17-2.79 2.79-3.87 2.79-2.06 0-5.6-2.01-7.43-4.34h10.41zM202.6 119.76s-1.88 4.76-6.22 6.78c-.24.11-1.03-.51-1.29-.51-.27 0-1.13.51-1.4.51s-1.02-.41-1.29-.41-.81.41-1.08.41c-.22 0-1.02-.41-1.39-.41-.27 0-1.4.41-1.51.41-.26 0-1.12-.41-1.39-.41s-1.29.51-1.56.51-1.18-.51-1.45-.51-1.02.41-1.28.41c-.27 0-1.02-.41-1.29-.41s-1.4.61-1.67.61-1.19-.41-1.46-.41c-.26 0-.91.41-1.18.41-.27 0-1.35-.51-1.61-.51-.27 0-1.19.51-1.46.51-.26 0-1.34-.41-1.61-.41-.86 0-1.4.83-1.61.83-.27 0-.79-.46-1.11-.71-1.41-1.1-2.81-2.93-3.49-4.07-.41-.65-1.25-2.62-1.25-2.62h37.6zM206.55 117.75v.92c-.18-.32-.24-.18-.34-.18h-40.24c-.51 0-1.15 0-1.84-.13v-.61h42.42zM148.43 116.31c.74 0 1.27 1.45 2.43 1.45h11.83c.23.23.36.46.34.71h-13.68c-.45.01-1.9-.91-1.9-1.54.01-.39.92-.62.98-.62M189.3 113.63h.34c.27 0 2.41 1.76 3.61 2.72-.11.24-.43.38-.7.38-1.28 0-3.38-1.9-3.38-2.74.01-.26.11-.21.13-.36M184.66 113.42c.55 0 .97 1.68.97 1.81 0 .86-.63 1.18-1.18 1.18-.86 0-.97-.34-.97-.82 0-.34.61-2.17 1.18-2.17M186.51 113.32h.44c.74 0 2.33 2.3 2.33 2.43 0 .58-.61.78-.96.78-1.15 0-2.05-2.01-2.05-2.48 0-.27.12-.5.24-.73M180.32 113.32c.12.12.25.21.25.47 0 .56-1.91 2.74-2.54 2.73h-1.3c-.12-.11-.14-.04-.14-.3.01-.27 2.89-2.67 3.73-2.9M182.73 113.11c.4 0 .43.46.43.52 0 .76-1.06 2.89-1.99 2.89-.43 0-.81-.22-.81-.67 0-.54 1.37-2.74 2.37-2.74M180.84 111.05l8.3-.07c.01.14.36.32.36.58 0 .26-.3.26-.71.35l-8.5.06c-.12-.11-.23-.11-.35-.24v-.35c.23-.12.56-.23.9-.33" clip-path="url(#SVGID_00000117676315883095677460000004119676369535542462_)" fill="#fff"/>
      <path d="M212.29 110.42c3.07 0 7.1 1.82 7.1 5.48 0 4.36-6.16 7.83-9.94 8.5-1.51.28-3.12.89-4.63 1.08-2.54.32-5.58 1.09-8.17 3.24-.14-.11-.16-.1-.16-.36 0-1.43 4.56-3.38 4.76-3.43 3.51-1.07 7.53-1.85 11.07-3.47 3.09-1.42 4.7-3.43 4.7-5.76 0-2.48-2.97-3.52-4.62-3.52-1 0-3.76.67-4.19 1.4.1.18.42.28.62.39.27.15.67.87.67 1.05 0 1.11-1.07 1.71-2.09 1.71-1.14 0-2.42-.64-2.42-1.92 0-.26.33-.87.62-1.27 1.6-2.21 4.54-3.12 6.68-3.12M184.71 106.29c.75 0 1.77.48 1.77 1.5 0 1.11-.89 1.7-1.82 1.7s-1.62-.9-1.62-1.6c.01-.95.74-1.6 1.67-1.6M171.86 103.32c-.79 1.27-2.27 1.02-3.34 1.85-.89.68-.14 2.47-1.65 2.47-.26 0-2.26-.41-2.52-.41-.57 0-.76-.14-1.39.67.79 1.03 1.93 1.6 1.93 2.74 0 .26-.11.41-.11.67 0 .71-2.17 1.4-3.06 1.6l-3.24-.1c-.59-.1-1.77.85-2.24 1.55-.5-.43-1.14-1.23-1.14-1.81 0-1.18 1.69-.78 2-.78h1.69c.87 0 2.12-1.22 2.12-1.9 0-1.65-2.9-1.72-2.9-3.52 0-1.38 1.77-1.7 2.64-1.7.27 0 3.87.83 4.14.83 1.02 0 1.93-.99 2.82-1.52.66-.38 1.63-.52 2.39-.55 1.38-.07 1.57 0 1.86-.09M183.97 246.87c1.34 0 2.93.83 2.91 2.74.21 14.21.27 14.27.24 14.37.03.5.24 1.18.24 1.44s.35 1.33.5 1.95c.73 2.69 3.06 4.4 5.35 4.4 6.39 0 18.91-8.75 23.69-13.36-.52-.48-1.66-1.7-2.02-1.96-.13-.1-1.21-.99-1.21-1.51 0-.5 7.21-4.53 7.5-4.73.99-.66 1.96-1.31 2.8-1.96.51-.4 2.47-1.87 3.17-1.87.71 0 .08 3.29.2 3.42-.21 1.16-.64 3.32-.64 3.58 0 .26-.64 2.28-.64 2.54 0 1.45-1.47 4.67-1.97 5.7-.15.31-.31.52-.55.74-1.3-.09-3.72-2.33-4.12-2.33-.6 0-5.98 5.15-8.11 7.15-1.33 1.23-2.88 2.32-4.09 3.36-2.62 2.33-18.24 14.45-23.67 14.45-5.43 0-21.05-12.12-23.67-14.45-1.2-1.05-2.75-2.13-4.08-3.36-2.13-2.01-7.52-7.15-8.11-7.15-.4 0-2.82 2.25-4.12 2.33-.23-.22-.4-.44-.54-.74-.5-1.03-1.97-4.25-1.97-5.7 0-.26-.65-2.28-.65-2.54 0-.26-.43-2.42-.65-3.58.12-.13-.51-3.42.2-3.42.7 0 2.66 1.46 3.16 1.87.84.65 1.81 1.3 2.79 1.96.29.2 7.51 4.23 7.51 4.73 0 .52-1.08 1.41-1.22 1.51-.36.26-1.49 1.48-2.01 1.96 4.78 4.61 17.29 13.36 23.68 13.36 2.3 0 4.62-1.72 5.35-4.4.16-.62.51-1.69.51-1.95s.21-.94.24-1.44c-.03-.1.03-.16.24-14.37-.02-1.91 1.56-2.74 2.9-2.74h.86zM143.86 201.95l-.01 32.73s3.4 2.69 16.15-.71c0 0 12.8-4.84 22.66 1.08v-33.66s-6.32-5.64-21.91-1.53c0 0-9.95 3.22-14.41 2.15-3.35-.81-2.48-.06-2.48-.06M182.37 244.07c-.35.13-.7.13-1.05 0-.01-.13-.12-.13-.12-.39 0-.74.96-3.64 1.14-3.91.04.46.15 2.62.03 4.3M183.29 239.67c.08.29.34.65.41 1.02.2.98.17 2.06.16 2.23v1.26l-.86.04c-.02-.57-.1-.66-.1-.7v-2.7c0-.26.16-.13.01-.16.12-.25.23-.65.38-.99M181.51 239.56v.76c.02.25-.63 2.19-.97 3.25h-.49c-.12-.11-.24-.31-.24-.55 0-.51 1.55-3.37 1.7-3.46M180.86 239.16c-.42 1.1-.95 2.22-1.51 3.38-.13.01-.08.11-.35.11-.27 0-.48-.26-.48-.51 0-.43 2.17-2.9 2.34-2.98M180.12 238.33l-.12.46c-.65.83-1.27 1.68-1.94 2.62-.54-.26-.5-.54-.5-.56 0-.5 2.03-2.31 2.56-2.52M222.95 201.95l.02 32.73s-3.4 2.69-16.16-.71c0 0-12.61-4.84-22.63 1.08v-33.72s6.29-5.58 21.88-1.47c0 0 9.95 3.22 14.41 2.15 3.35-.81 2.48-.06 2.48-.06M184.45 244.07c.34.13.7.13 1.05 0 .01-.13.12-.13.12-.39 0-.74-.96-3.64-1.13-3.91-.06.46-.16 2.62-.04 4.3M185.31 239.56v.76c-.01.25.63 2.19.97 3.25h.48c.13-.11.25-.31.25-.55-.01-.51-1.56-3.37-1.7-3.46M185.96 239.16c.41 1.1.94 2.22 1.5 3.38.13.01.08.11.35.11.27 0 .49-.26.49-.51-.01-.43-2.17-2.9-2.34-2.98" clip-path="url(#SVGID_00000117676315883095677460000004119676369535542462_)" fill="#fff"/>
      <path class="st2" d="M226.9 204.05v35.49l-.27-.28-.51-.66v-34.76l.78.21zm-1.15-.79v34.86l-.92-1.25V202.7l.92.56zm-1.31-.6v33.79l-.42-.54-.53-.77v-33.37l.95.89z"/>
      <g>
        <path d="m186.7 238.33.12.46c.64.83 1.26 1.68 1.94 2.62.54-.26.49-.54.49-.56 0-.5-2.02-2.31-2.55-2.52" clip-path="url(#SVGID_00000182490869851915038870000000765202806977479072_)" fill="#fff"/>
        <path d="M227.95 205.06h1.3v37.14l-39.13.02-.01-.1c-1.35 2.23-3.76 3.75-6.54 3.86h-.32c-2.78-.11-5.19-1.64-6.54-3.86l-.01.1h-39.13v-37.16h1.3v35.91h38l-.1.73c1.29 2.35 3.77 3.96 6.64 4.02 2.87-.06 5.35-1.67 6.64-4.02l-.1-.73h38v-35.91zM155.43 116.03c0-.42.35-.76.79-.76.43 0 .79.34.79.76s-.36.76-.79.76c-.44 0-.79-.34-.79-.76M195.19 127.37c-.7 0-1.96 1.17-1.92 1.85h.57c.44.01 1.9-1.07 1.9-1.39-.01-.26-.27-.46-.55-.46M183.36 200.04l-3.12-2.03c.01-.7-.01-1.94 0-2.72-.02-1.91 1.56-2.74 2.9-2.74h.82c1.34 0 2.93.83 2.91 2.74.01.78.02 2.03.04 2.72l-3.55 2.03z" clip-path="url(#SVGID_00000182490869851915038870000000765202806977479072_)" fill="#fff"/>
      </g>
      <path class="st2" d="m161 180.7 4.82-.07v7.03l-4.79-.88zM152.84 181.42h7.18v4.73l-7.18-1.09zM152.32 181.53l-1.46 1.05v3.66l1.46-.91z"/>
      <g>
        <path d="M163.11 181.3c.12-.04.22-.06.35-.06.66 0 1.2.52 1.2 1.15 0 .64-.54 1.16-1.2 1.16-.26 0-.69-.42-.88-.55.48-.15 1.04-.06 1.04-.76 0-.37-.22-.73-.51-.94M163.11 184.2c.12-.04.22-.06.35-.06.66 0 1.2.51 1.2 1.15 0 .64-.54 1.15-1.2 1.15-.26 0-.69-.41-.88-.55.48-.15 1.04-.06 1.04-.75 0-.38-.22-.74-.51-.94" clip-path="url(#SVGID_00000181067565438463062370000010364539694986995602_)"/>
      </g>
      <path class="st2" d="m152.68 185.62 7.31 1.13v1.02l-8.66-1.32zM161.06 187.42l4.76.89-.01.94-4.75-.96zM166.7 188.13l16.66 2.92v.83l-16.66-2.72zM205.66 180.63h-4.76v7.03l4.79-.88zM213.88 181.42h-7.19v4.73l7.19-1.09z"/>
      <g>
        <path d="M202.58 181.3c.12-.04.22-.06.36-.06.66 0 1.2.52 1.2 1.15 0 .64-.54 1.16-1.2 1.16-.26 0-.69-.42-.88-.55.48-.15 1.04-.06 1.04-.76-.01-.37-.23-.73-.52-.94M202.58 184.2c.12-.04.22-.06.36-.06.66 0 1.2.51 1.2 1.15 0 .64-.54 1.15-1.2 1.15-.26 0-.69-.41-.88-.55.48-.15 1.04-.06 1.04-.75-.01-.38-.23-.74-.52-.94" clip-path="url(#SVGID_00000054227443711513118850000009496669125383109554_)"/>
      </g>
      <path class="st2" d="m213.88 185.58-7.15 1.17v1.02l6.53-1.11zM205.66 187.42l-4.76.89v.78l4.76-.8zM183.36 190.11l-16.6-2.88v-5.74h33.2v5.74zM200.02 188.13l-16.66 2.92v.83l16.66-2.72z"/>
      <g>
        <path d="M190.37 209.78c1.85.05 3.29.97 3.29 2.49 0 .73-.3 1.32-1.19 1.93.57.81 1.73 1.55 1.73 2.57 0 2.26-2.48 2.65-3.99 2.65-.27 0-1.03 0-3.1-.11-.13-.11-.23-.11-.36-.25.23-.34.54-.75.7-1.15v-7.13c-.15-.3-.48-.61-.58-.87.37-.02.8-.13 3.5-.13M199.76 210.4c2.73 0 3.83 2.48 3.83 4.41 0 2.36-1.57 4.92-4.15 4.92-2.59 0-4.15-2.48-4.15-4.41-.01-2.06 1.34-4.92 4.47-4.92M204.93 210.82c3.52 0 2.51 2.42 4.96 5.18.59-.73.49-1.94.49-2.8 0-.74-.02-.79-.75-1.52.16-.04.16-.14.43-.14s1.47.21 2.15.46c-1.44.83-1.04 2.49-1.18 3.74-.26 2.27-.23 3.64-.47 5.02-2.03-2.19-2.7-4.55-4.35-6.64-.08.01-.15.19-.22.28-.13 1.23-.56 3.66-.56 3.92 0 .58.48 1.2.86 1.78-.71.15-1.73.26-2.57-.1 0 0-.01-.15.03-.25 1.12-.47.93-2.32.93-3.15 0-.26.54-3.74.54-3.99 0-.32-.32-.92-.87-1.44.24-.28.39-.35.58-.35M214.51 211.96c.89.1 2.51.1 2.86.21 0 0 .13-.01.13.25s-.32.46-.32.73c0 .26.62 2.07 1.04 3.08.52 1.3.73 3.19 2.08 4.35v.37c-1.12.13-2.21.13-3.31.01 0 0-.13.01-.13-.24 0-.26.43-.63.43-.89 0-.62-.47-1.66-1.25-1.66h-1.81c-.26.12-.71 1.28-.71 1.71 0 .25.21.49.43.84-.79.14-1.68.04-2.47-.1.22-.36.8-.57 1.03-1.08.95-2 2.31-6.15 2.31-6.4 0-.27-.44-.62-.44-.88-.01-.25 0-.18.13-.3" clip-path="url(#SVGID_00000151518978040495092650000012680311167569839233_)"/>
        <path d="M199.96 211.13c1.17 0 1.38 1.1 1.57 2.23-.11 1.25-.12 1.32 0 1.44-.04.26-.32 4.21-2.21 4.21-1.67 0-1.89-2.59-1.89-3.21 0-.9.39-4.67 2.53-4.67M215.27 214.86c.23.1 1.04 1.69 1.04 2.02 0 .26-.11.11-.12.36h-1.35c-.12-.11-.25-.25-.25-.51-.01-.26.32-1.22.68-1.87M190.21 214.76c1.22 0 1.83.85 1.83 1.82 0 .95-.73 2.02-1.78 2.02-.27 0-.57-.12-.92-.34v-2.84c0-.53.37-.66.87-.66M190.37 210.72c1.01 0 1.45.42 1.45 1.45 0 1.08-.5 1.76-1.61 1.76-.27 0-.53-.12-.76-.34 0-2.09.1-2.4.12-2.74.24-.13.53-.13.8-.13" clip-path="url(#SVGID_00000151518978040495092650000012680311167569839233_)" fill="#fff"/>
        <path d="M174.71 209.78h2.17c.12.23.12 2.03 0 2.37-.43-.01-.7-1.2-1.35-1.43-.2-.06-.46-.12-.74-.12-.57 0-1.45.22-1.45.98 0 2.07 4.53 1.99 4.53 5.29 0 1.57-1.15 2.54-2.8 2.54-.27 0-1.9-.31-2.77-.46-.38-.43-.35-1.25-.35-1.87 0-.26.11-.53.26-.88.68 1.21 1.64 2.38 3.03 2.38.62 0 1.13-.4 1.13-1.09 0-1.9-4.53-2.31-4.53-5.23 0-1.79 1.42-2.48 2.87-2.48M168.82 210.6c.27 0 .41.21.63.33v2.25c-.4-.43-.64-.91-1.04-1.23-.36-.3-1.1-.43-1.37-.43-.26 0-1.56.18-1.67.78.11 1.24.09 1.38 0 1.45.14.2-.07 1.29.54 1.29.73 0 .93-.72 1.46-1.14.15.24.15.44.26.67-.12.14-.11.2-.03 1.91-.49-.39-.85-.82-1.37-.82-.47 0-.58.43-.64.68.11 1.33.09 1.48 0 1.57.11.39.05.92.24 1.32.19.38.62.27.84.27 1.27 0 2.48-.42 3.06-2.07.15.12.17.26.17.52s-.21 1.2-.38 1.85c-1.6.43-4.81.85-5.08.84h-1.43c-.01-.25.35-.57.49-.79.18-.29.25-.81.25-1.07l-.32-5.8c0-.56-.65-1.25-.86-1.38-.01-.13.12-.28.24-.36 1.96-.22 5.74-.64 6.01-.64M158.63 211.85c1.87 0 3.18 1 3.18 2.75 0 1.96-1.03 2.96-4.04 2.98-.36.13-.28.82-.28.91 0 .26.14 1.42.45 2.11.11.24.49.39.84.63-.33.63-1.42.39-1.99.48-1.4 0-1.66-.01-1.77-.13-.01-.23.28-.33.39-.56.21-.49.14-1.28.14-1.53l-.21-5.69c-.16-.38-.19-.69-.65-1.16 1.03-.67 2.75-.79 3.94-.79M149.84 212.16c.27 0 .59.11 2.79.13-.26.41.02 1.02.02 1.37 0 .26-.11.75-.25 1.19-.38-.32-.5-.92-.85-1.25-.31-.3-1.16-.5-1.43-.5-.56 0-1.24.17-1.24.94 0 1.14 3.64 2.88 3.41 3.21-.13.18.37.33.54.53.15.19.37.54.4.84.07.1.3.07.3.33s-.22-.15-.22.1c0 .26.22.16.22.41 0 .26-.22.15-.22.42 0 .26.05.05.21.08-.32.47-.55 1.11-1.09 1.52-.46.33-1.33.53-1.6.53s-1.36-.39-2.01-.6c-.31-.09-.74-.03-1.1-.04-.02-.24-.12-.44-.12-2 0-.21.11-.54.27-.78.82 1.18 1.39 2.49 2.8 2.49.58 0 1.24-.6 1.24-1.14 0-1.94-4.42-2.02-4.42-5.13-.03-1.26.76-2.65 2.35-2.65" clip-path="url(#SVGID_00000151518978040495092650000012680311167569839233_)"/>
        <path d="M158.25 212.67c1.3 0 1.62 1.33 1.62 2.02 0 1.1-.49 2.12-1.67 2.12-.25 0-.82.05-.81-.67.04-1.56-.11-2.07-.11-2.34 0-.88.11-1.13.97-1.13" clip-path="url(#SVGID_00000151518978040495092650000012680311167569839233_)" fill="#fff"/>
        <path d="M183.12 302.86C165.85 295.55 107 265.47 107 196.35v-7.25c4.04-1.25 14.21-4.26 18.22-5.36 0 0 6.15-2.81 17.1 1.64 0 0 17.54 7.2 35.87 8.84.55.14.34 3.27.42 3.74l-.7-.17c-.27.01-.47-.19-.82-.23-2.16-.28-3.94-.45-6.27-.45-3.78 0-3.97.44-8.89 1.18-.79.12-3.17.76-4.02 1.01-2.75.82-5.73 1.59-8.68 1.59-.27 0-2.83-.34-3.69-.47-1.06-.17-1.88.2-2.15.2-.59 0-3.82 2.81-4.84 3.3-.48.23-2.08-.34-2.08.51l.06 38.54h39.39c.46 0 2.69 3.5 2.69 3.51v17.54c0 .26-.54 1.82-.54 2.07 0 .26-.99 2.09-1.67 2.89-1.05 1.24-2.28 1.3-3.27 1.3-5.47 0-17.28-8.22-21.07-12.25.06-.07 2.79-2.41 2.79-3.2 0-1.07-2.75-2.19-3.09-2.38-.43-.24-.94-.62-1.51-.97-1.26-.78-2.74-1.53-4.08-2.44-.92-.62-4.8-3.82-6.33-3.88-1.04-.04-1.57 1.47-1.57 1.91l.14 4.13c0 .26.49 2.81.78 4.13.35 1.65.9 3.43 1.5 5.16.06.18 1.49 3.37 2.4 3.37 0 0 4.11-2.47 4.35-2.47.54 0 3.06 2.97 3.81 3.65 1.59 1.47 3.29 3.39 5.2 5 2.71 2.3 5.73 4.36 8.56 6.47 1.02.76 2.04 1.59 3.04 2.31 1.45 1.02 3.07 2.07 4.73 3.09.69.43 1.66.69 2.36 1.1 2.1 1.24 5.24 3.28 7.6 3.28h1.59c2.37 0 5.51-2.04 7.61-3.28.69-.41 1.67-.67 2.36-1.1 1.67-1.02 3.28-2.06 4.73-3.09 1-.72 2.03-1.55 3.05-2.31 2.83-2.11 5.84-4.17 8.56-6.47 1.91-1.61 3.61-3.53 5.2-5 .75-.68 3.27-3.65 3.81-3.65.24 0 4.35 2.47 4.35 2.47.9 0 2.34-3.19 2.4-3.37.6-1.73 1.15-3.51 1.5-5.16.28-1.32.78-3.88.78-4.13v-4.52c0-.43-.64-1.72-1.51-1.72-1.53 0-5.34 3.46-6.25 4.08-1.35.9-2.82 1.66-4.09 2.44-.57.35-1.08.73-1.51.97-.33.19-3.09 1.3-3.09 2.38 0 .79 2.74 3.13 2.79 3.2-3.79 4.03-15.6 12.25-21.07 12.25-1 0-2.22-.06-3.29-1.3-.68-.8-1.66-2.63-1.66-2.89 0-.26-.53-1.82-.53-2.07v-17.54c0-.02 2.29-3.51 2.75-3.51h39.39v-38.54c0-.85-1.85-.62-2.34-.85-1.02-.49-3.92-3.22-4.52-3.22-.26 0-1.87.16-2.93.34-.86.13-2.22.76-3.46.4-2.82-.81-5.68-.17-8.62-1.75-.78-.42-2.96-1.01-3.75-1.13-4.92-.75-4.8-1.24-8.57-1.24-2.32 0-4.12-.12-6.28.16-.35.04-.66.16-.92.16l-.6.15c.08-.47-.28-3.11.27-3.26 18.32-1.64 35.86-8.84 35.86-8.84 10.96-4.45 17.11-1.64 17.11-1.64 4.23 1.16 14.18 4.35 17.37 5.41v7.07c.01 69.27-58.85 99.36-76.11 106.67" clip-path="url(#SVGID_00000151518978040495092650000012680311167569839233_)" fill="#0090d0"/>
      </g>
      <path class="st2" d="M141.99 203.07v33.66l-.92 1.23v-34.29l.92-.6zm1.33-.88v32.75l-.94 1.26v-33.39l.94-.62zm-2.62 36.26-.79 1.05v-35.08l.79-.52v34.55z"/>
      <g>
        <path d="M142.96 237.5c.62.23 1.72.57 3.2.82 2.41.4 5.84.56 9.93-.45l7.91-1.97s2.49-.69 5.65-.8c3.09-.11 6.84.33 9.52 2.53l-.16.16c-2.61-2.14-6.29-2.58-9.36-2.47-3.13.11-5.6.79-5.6.79l-7.92 1.97c-4.12 1.01-7.59.86-10.02.45-1.54-.26-2.67-.62-3.29-.85l.14-.18zm1.09-1.6c.1.04.21.08.33.13 3.61 1.31 8.11.94 11.71.05l7.92-1.97s2.77-.69 6.25-.78c3.44-.1 7.6.39 10.45 2.71l-.16.16c-2.79-2.26-6.87-2.74-10.29-2.65-3.45.1-6.2.78-6.2.78l-7.92 1.97c-3.65.9-8.2 1.26-11.85-.06-.15-.05-.28-.1-.38-.15l.14-.19zm-2.06 3.04c.16.06.35.14.57.21.56.17 1.31.37 2.26.53 2.43.43 6.14.68 11.28-.02l2.75-.55 5.39-1.25s2.06-.62 4.8-.78c2.71-.16 6.1.12 8.84 1.91l-.16.17c-2.67-1.72-5.99-2.01-8.67-1.85-1.68.1-3.1.37-3.94.56.88-.14 2.48-.36 4.32-.38 2.65-.04 5.84.31 8.11 1.85l-.16.17c-2.21-1.47-5.32-1.82-7.95-1.79-2.77.04-4.99.5-4.99.5l-5.57 1.11-2.82.65c-5.17.71-8.87.43-11.28-.03-.97-.18-1.73-.4-2.29-.59-.25-.08-.46-.15-.64-.22l.15-.2zM224.16 237.53c-.89.38-6.21 2.41-13.74.56l-7.91-1.97c-.01 0-9.49-2.61-14.82 1.56l-.16-.17c2.67-2.1 6.34-2.52 9.38-2.42 3.16.11 5.65.8 5.65.8l7.91 1.97c4.09 1 7.53.85 9.93.45 1.9-.32 3.16-.79 3.61-.97l.15.19zm-1.23-1.57c-.86.41-5.16 2.15-12.52.34l-7.91-1.97c-.02 0-10.69-2.64-16.35 1.76l-.16-.16c2.85-2.23 6.93-2.69 10.31-2.6 3.48.1 6.25.78 6.25.78l7.91 1.97c3.61.89 8.11 1.26 11.72-.05.27-.1.47-.18.6-.25l.15.18zm1.14 3.4c-1.97.66-6.33 1.61-13.57.62l-2.83-.65-5.56-1.11c-.01 0-8.2-1.72-12.78 1.18l-.16-.17c2.26-1.45 5.36-1.78 7.96-1.74 1.84.02 3.43.24 4.31.38-2.16-.5-8.1-1.5-12.44 1.18l-.16-.17c2.71-1.69 6.03-1.96 8.68-1.8 2.75.16 4.8.78 4.8.78l5.38 1.25 2.76.55c5.15.71 8.86.45 11.28.02.95-.17 1.7-.36 2.26-.53.55-.19.91-.35 1.08-.43l.17.21c-.2.09-.59.25-1.18.43" clip-path="url(#SVGID_00000084520457191205706780000013455712210974257815_)" fill="#fff"/>
        <path d="M220.56 354.91c1.9-.41 3.49 1.34 3.89 3.17.4 1.83-.34 4.06-2.24 4.47-1.9.41-3.52-1.3-3.91-3.14-.39-1.83.36-4.09 2.26-4.5m-21.76 3.72c-1.77.15-3.12 1.79-2.95 3.68.17 1.9 1.74 3.29 3.55 3.13 1.8-.16 3.11-1.8 2.93-3.7-.17-1.89-1.76-3.26-3.53-3.11m-12.87 6.02c.17-5.23-1.8-9.25-7.26-9.43-5.45-.18-7.69 3.7-7.87 8.93l-.43 12.82 3.97.13.4-11.99c.09-2.64.43-6.36 3.8-6.25 3.38.11 3.47 3.84 3.38 6.49l-.4 11.99 3.97.13.44-12.82zm-25.44 3.63 3.75.53 1.94-13.83-3.75-.53-.96 6.84c-.23 1.66-.63 4.28-2.85 3.96-2.11-.3-1.73-2.43-1.5-4.09l1.03-7.32-3.74-.53-1.19 8.45c-.45 3.21.2 5.97 3.73 6.47 1.34.19 2.72-.11 3.67-1.24l-.13 1.29zm-17.07 5.36c1.21.26 2.42-.59 2.68-1.84.27-1.28-.49-2.52-1.7-2.77-1.22-.26-2.41.56-2.68 1.84-.27 1.24.49 2.51 1.7 2.77m131.36-21.26-.21 1.87 3.05-1.87h-2.84zm-21.83 0 1.54 3.24 3.37-1.6-.56-1.18c1.32.63 2.86.59 4.1 0 .28-.14.54-.29.79-.46h-9.24zm-20.46 0c-.08 1.19.09 2.42.48 3.59 1.16 3.48 4.51 6.26 8.07 5.06 1.33-.45 2.46-1.51 2.93-2.81l.41 1.21 3.59-1.2-1.96-5.86h-3.6c.04.12.08.22.12.33.6 1.78.11 4.07-1.74 4.69-1.84.62-3.61-.92-4.21-2.7-.25-.73-.31-1.56-.17-2.32l-3.92.01zm-13.99 0c-.41.39-.75.84-.98 1.35l-.32-1.24-3.64.79 2.95 13.65 3.64-.79-.28-1.28c1.14.92 2.64 1.23 3.99.94 3.72-.81 5.14-4.86 4.36-8.48-.43-1.98-1.47-3.81-2.93-4.95l-6.79.01zm-72.49 0-2.73 12.83 3.7.79 2.89-13.61h-3.86zm-13.63 0-6.6 7.81 3.95 1.21 4.91-6.74.67 8.44 3.98 1.22-1.28-11.95h-5.63zm-19.35 0c.17 2.18 1.33 3.96 3.74 4.93 3.98 1.61 7.21-.68 8.8-4.61.04-.1.08-.21.12-.31l-6.17-.02 1.5.61c-.72 1.27-2.01 2.23-3.41 1.66-.94-.38-1.36-1.28-1.41-2.26h-3.17zm-6.37 0 .41.2.1-.2h-.51z" clip-path="url(#SVGID_00000084520457191205706780000013455712210974257815_)" fill="#0090d0"/>
        <path d="M255.69 342.98c1.76-.84 3.71.5 4.52 2.19.81 1.69.6 4.03-1.15 4.86-1.76.84-3.72-.46-4.53-2.16-.82-1.68-.6-4.05 1.16-4.89m-166.84-1.6c.41 1.41 1.71 2.72 2.91 3.44 2.13 1.28 4.59.54 5.94-1.71 1.16-1.93.45-3.31-.38-4.51-.83-1.19-1.82-2.12-1.19-3.17.47-.78 1.36-.94 2.07-.51.95.57 1.39 1.73 1.57 2.84l2.7-1.13c-.24-1.87-1.28-3.49-2.81-4.41-2.39-1.43-5.38-1.07-6.97 1.58-1.25 2.07-.58 3.6.27 4.84.84 1.23 1.87 2.18 1.34 3.06-.35.59-1.15.7-1.68.38-.65-.39-1.03-1.12-1.21-1.86l-2.56 1.16zm-11.43 3.48c1.02.71 2.46.4 3.19-.65.75-1.07.54-2.51-.48-3.22-1.02-.71-2.44-.42-3.19.65-.74 1.05-.54 2.51.48 3.22m200.19 7.52 1.12-.69.64-11 4.77 7.68 3.39-2.08-11.2-18.28-3.39 2.08 5.04 8.22-10.63-4.79-4.35 2.67 12.99 5.58-1.21 10.61h2.83zm-15.43 0c2.71-1.89 2.97-5.74 1.51-8.8-1.63-3.41-5.23-5.82-8.74-4.15-1.24.59-2.24 1.76-2.5 3.11l-.6-1.13-3.36 1.6 4.47 9.37h9.22zm-25.76 0c.2-1.09.81-2.04 1.9-2.4 1.74-.58 3.41.77 4.1 2.41l3.6-.01-4.84-14.45-3.59 1.2 2.78 8.3c-1.13-.82-2.69-.96-3.97-.53-2.51.84-3.75 3.04-3.91 5.49l3.93-.01zm-11.14 0c-1.27-1-2.85-1.48-4.62-1.1-.8.17-1.56.56-2.17 1.11l6.79-.01zm-75.4 0 .01-.05-3.7-.79-.18.83h3.87zm-11.87 0-.37-3.46-1.86-.57-3.4 4.03h5.63zm-21.81 0c-.02-.42.03-.86.14-1.29l3.18 1.29h6.17c1.4-3.8.19-7.43-3.52-8.93-2.58-1.04-5.32-.46-7.22 1.78l3.01 1.86c.89-.84 1.92-1.28 3.07-.82 1.83.74 1.68 2.83 1.02 4.46l-8.09-3.27c-.71 1.75-1.04 3.42-.93 4.9l3.17.02zm-9.03 0 6.02-12.35-3.4-1.66-2.76 5.65c-.95 1.94-2.26 4.02-4.62 2.87-.51-.25-.92-.64-1.18-1.15l-2.03 3.12c.35.39.77.76 1.26.99 1.26.62 2.58.5 3.8-.27l-.59 1.33 2.99 1.46h.51zm180.66-25.09-3.89 2.99c2.86 3.72 6.47 5.21 9.91 2.56 1.98-1.52 2.69-3.5 2.43-5.54l-3.85-.01c.59 1.21.65 2.63-.46 3.48-1.16.89-2.69.31-3.71-.7l3.61-2.78h-4.04zm-5.59 0c.06.33.15.67.27 1.01l1.91-1.01h-2.18zm-194.83 0-6.83 9.75 3.1 2.17 8.01-11.44-.68-.48h-3.6zm-10.92 0-1.26 1.68-1.86-1.4-2.02 2.68 1.85 1.4-2.84 3.77 3.02 2.28 2.84-3.77 1.04.78 2.02-2.68-1.04-.78 2.98-3.95h-4.73z" clip-path="url(#SVGID_00000084520457191205706780000013455712210974257815_)" fill="#0090d0"/>
        <path d="M302.05 324.41c1.47 0 3.09-.87 4.12-1.82 1.83-1.68 1.81-4.25.04-6.18-1.52-1.65-3.05-1.36-4.43-.91s-2.55 1.14-3.37.24c-.61-.67-.52-1.57.09-2.13.81-.75 2.05-.84 3.16-.71l-.32-2.91c-1.86-.3-3.71.24-5.02 1.45-2.05 1.88-2.55 4.85-.45 7.14 1.64 1.78 3.29 1.58 4.72 1.1 1.42-.45 2.62-1.18 3.32-.42.46.5.35 1.3-.11 1.72-.56.51-1.36.67-2.13.64l.38 2.79zM64.73 314.18c-3.14 3.49-3.96 7.3-.73 10.21 3.19 2.88 7 1.83 9.84-1.32 2.84-3.15 3.02-7.11-.03-9.86-2.07-1.86-4.84-2.26-7.39-.8l2.19 2.78c1.12-.48 2.24-.55 3.16.28 1.47 1.32.62 3.23-.56 4.54l-6.48-5.83zm4.75 7.6c-1.11.95-2.65 1.4-3.77.39-1.09-.98-.8-2.59.02-3.77l3.75 3.38zm-15.77-7.96 2.63 2.72 10.04-9.7-2.63-2.72-10.04 9.7zm-4.6 7.07c.86.9 2.34.86 3.26-.03.94-.91 1-2.36.14-3.25-.86-.89-2.32-.88-3.26.03-.92.89-1.01 2.36-.14 3.25m235.31 6.4 1.22-.64c-.27-1.19-.14-2.3.85-3.06 1.56-1.2 3.29-.02 4.37 1.38l-3.02 2.33h4.05l.39-.3c.06.1.11.2.16.31h3.85c-.19-1.45-.87-2.96-1.96-4.36-2.58-3.36-6.45-4.26-9.7-1.75-1.93 1.49-2.85 3.71-2.39 6.11l2.18-.02zm-193.41 0-2.42-1.69-1.18 1.69h3.6zm-9.78 0 3.41-4.52-3.02-2.28-5.12 6.79h4.73zm225.31-25.08c-.07.46-.06.92.03 1.37l-.98-.82-2.51 2.75 10.31 9.41 2.51-2.75-.97-.88c1.46.09 2.87-.53 3.8-1.54 1.99-2.18 1.72-5.16.22-7.55l-5.67.01c.54.2 1.05.51 1.47.9 1.39 1.27 2.08 3.51.76 4.94-1.31 1.44-3.62.97-5.01-.29-1.39-1.27-2.08-3.54-.77-4.98.21-.23.46-.42.72-.55l-3.91-.02zm-253.59 0-2.93 2.64-1.56-1.73-2.49 2.24 1.56 1.73-3.51 3.16 2.53 2.81 3.51-3.16.87.96 2.49-2.25-.87-.96 6.05-5.45h-5.65z" clip-path="url(#SVGID_00000084520457191205706780000013455712210974257815_)" fill="#0090d0"/>
        <path d="m320.97 287.25-5.27-9.12-2.41 3.39 11.86 20.26 2.44-3.43-4.49-7.37 8.3 2.02 2.49-3.5-12.92-2.25zm-285.04 4.71 2.27 3.49 8.64-12.86-1.06-1.63-15.28 2.64 2.25 3.47 8.09-2-4.91 6.89zm274.52 10.25c.84-.43 1.88-.38 2.82-.01l5.67.01c-.43-.7-.96-1.34-1.58-1.9-2.79-2.55-7.04-3.43-9.66-.55-.62.67-1.04 1.54-1.17 2.45h3.92zm-251.85 0 1.83-1.65-2.53-2.81-4.96 4.46h5.66zm286.92-25.08c-.21.16-.4.38-.54.63-.6 1.09-.16 2.47.99 3.1 1.12.62 2.55.26 3.15-.83.54-.99.21-2.23-.69-2.91h-2.91zm-5.62 0 1.1.61.33-.61h-1.43zm-313.52 0c2.07 2.25 5.69 2.25 8.54.74.42-.22.82-.47 1.19-.75l-9.73.01z" clip-path="url(#SVGID_00000084520457191205706780000013455712210974257815_)" fill="#0090d0"/>
        <path d="m356.03 242.27 1.09-3.62-13.37-4.04-1.09 3.62 13.37 4.04zm8.42.57c.36-1.19-.39-2.46-1.61-2.83-1.25-.38-2.55.27-2.91 1.46-.36 1.19.36 2.45 1.61 2.83 1.23.37 2.55-.27 2.91-1.46m-14.56 7.56-.75 2.2 3.18 1.08.75-2.2 4.47 1.52 1.22-3.58-4.47-1.52.42-1.23-3.18-1.08-.42 1.23-10.04-3.42-1.22 3.58 10.04 3.42zm10.01 11.48-22.06-9.73-1.53 3.46 6.32 2.79c1.54.68 3.95 1.77 3.04 3.82-.86 1.95-2.81 1.01-4.34.33l-6.76-2.98-1.53 3.46 7.8 3.44c2.97 1.31 5.8 1.44 7.24-1.83.54-1.24.64-2.64-.09-3.82l10.38 4.52 1.53-3.46zm-324.74 7.96c.91 1.72-.34 3.73-1.99 4.61-1.66.88-4 .78-4.91-.94-.91-1.72.3-3.74 1.96-4.62 1.65-.88 4.03-.77 4.94.95m-16.68-9.72 1.42 3.51 12.95-5.23-1.42-3.51-6.41 2.59c-1.56.63-4.02 1.6-4.86-.49-.8-1.98 1.24-2.71 2.79-3.34l6.86-2.77-1.42-3.51-7.91 3.2c-3.01 1.21-5.07 3.16-3.74 6.46.51 1.25 1.45 2.3 2.9 2.56l-1.16.53zm329.95 17.01c-.09-.07-.19-.14-.3-.19-.88-.48-1.91-.38-2.61.18l2.91.01zm-7.09 0 1.49-2.71-12.24-6.73-1.82 3.31 11.13 6.12h1.44zm-305.23 0c2.64-1.96 4.17-5.17 2.57-8.18-.65-1.22-1.86-2.16-3.22-2.36l1.1-.65-1.75-3.29-12.33 6.55 1.75 3.29 1.15-.61c-.57 1.35-.47 2.88.18 4.1.23.43.5.82.81 1.15h9.74zm309.32-50.17c.04 2.21 1.37 4.18 3.9 4.71 2.36.5 3.59-.62 4.49-1.83.89-1.19 1.46-2.48 2.46-2.27.67.14 1.04.86.91 1.46-.16.74-.72 1.34-1.36 1.75l1.92 2.07c1.2-.85 2.01-2.5 2.31-3.88.15-.71.13-1.39-.04-2.02h-8.5c-.49.65-.99 1.1-1.76.94-.56-.12-.94-.47-1.11-.92l-3.22-.01zm-344.93 0 .54 2.48 10.18 4.21-8.82 1.99.85 3.88 20.94-4.6-.85-3.88-9.41 2.07 5.8-6.15h-5.57l-2.85 3.12-6.53-3.12H.5z" clip-path="url(#SVGID_00000084520457191205706780000013455712210974257815_)" fill="#0090d0"/>
        <path d="m363.71 184.99-.13-3.78-13.96.49.13 3.78 13.96-.49zm8.15-2.18c-.04-1.24-1.16-2.2-2.44-2.16-1.31.04-2.32 1.08-2.28 2.32.04 1.24 1.13 2.21 2.44 2.16 1.27-.04 2.32-1.08 2.28-2.32m-8.06 10.62.14-4.16-14.45 5.58-.07 1.94 14.02 6.6.14-4.13-7.78-3 8-2.83zm-9.97 25.39c4.65.65 8.27-.8 8.87-5.11.6-4.25-2.4-6.83-6.6-7.42-4.2-.59-7.59 1.47-8.16 5.54-.39 2.76.84 5.28 3.47 6.57l1.08-3.37c-1.03-.66-1.71-1.55-1.53-2.78.27-1.95 2.34-2.32 4.08-2.07l-1.21 8.64zm3.65-8.19c1.41.39 2.64 1.41 2.43 2.91-.2 1.44-1.7 2.11-3.14 2.1l.71-5.01zM4.8 205.9l.47 3.7 1.3-.17c-1.01 1.06-1.45 2.53-1.28 3.9.49 3.78 4.41 5.54 8.08 5.07 3.75-.48 7.16-3.15 6.67-7.01-.18-1.37-.98-2.68-2.18-3.34l1.26-.22-.47-3.7L4.8 205.9zm11.63 5.08c.25 1.93-1.63 3.37-3.49 3.61-1.86.24-4.01-.69-4.26-2.61-.25-1.93 1.6-3.39 3.46-3.63 1.86-.25 4.05.7 4.29 2.63M4.18 187.23l.08 3.73 1.31-.03c-1.12.95-1.71 2.36-1.68 3.74.09 3.81 3.81 5.97 7.5 5.88 3.78-.09 7.45-2.39 7.37-6.27-.03-1.38-.69-2.77-1.82-3.55l1.28-.08-.08-3.73-13.96.31zm11.03 6.26c.04 1.94-1.98 3.18-3.85 3.22-1.88.04-3.92-1.1-3.97-3.04-.04-1.94 1.95-3.21 3.82-3.25 1.88-.04 3.96 1.13 4 3.07m344.8 33.47c-.41-1.5-1.7-2.66-3.5-3.04-2.2-.47-3.28.66-4.14 1.83-.31.42-.58.85-.85 1.21h8.49zm-11.36 0c-.1-.25-.12-.55-.06-.86.23-1.08 1.18-1.88 2.17-2.41l-1.95-2.18c-1.69.83-2.88 2.34-3.25 4.09-.1.45-.14.91-.13 1.35l3.22.01zm-328.91 0 2.21-2.34-1.1-4.99-6.68 7.32h5.57zm-14.94 0-4.8-2.3.5 2.29h4.3zm.66-50.17c.17.23.35.44.56.64l-1.28-.1-.31 3.77 21.34 1.75.31-3.77-8.73-.72c.64-.38 1.14-.94 1.5-1.59l-3.51.02c-.77 1.07-2.3 1.6-3.69 1.48-1.14-.09-2.3-.63-2.99-1.48h-3.2z" clip-path="url(#SVGID_00000084520457191205706780000013455712210974257815_)" fill="#0090d0"/>
        <path d="m328.42 82.99-2.22-3.06-11.3 8.21 2.22 3.06 5.59-4.06c1.36-.99 3.51-2.52 4.83-.7 1.26 1.73-.54 2.93-1.9 3.92l-5.98 4.35 2.22 3.06 6.9-5.02c2.62-1.91 4.16-4.29 2.06-7.17-.79-1.09-1.96-1.88-3.44-1.78l1.02-.81zm3.51 24.82c.86 1.55 2.9 2.12 4.57 1.2 1.67-.92 2.3-2.93 1.42-4.51-.88-1.58-2.91-2.11-4.57-1.17-1.68.92-2.28 2.93-1.42 4.48m18.57 14.39-1.42-3.51-12.95 5.23 1.42 3.51 12.95-5.23zm6.92-4.83c-.47-1.15-1.84-1.67-3.03-1.2-1.21.49-1.81 1.81-1.35 2.96.46 1.15 1.82 1.69 3.03 1.19 1.18-.47 1.81-1.8 1.35-2.95m-7.09 16.08-9.34 3.03 1.23 3.78 9.34-3.04 13.04 2.52-1.44-4.42-8.32-1.39 6.01-5.7-1.43-4.39-9.09 9.61zm7.91 11.69-8.04 1.71c-3.98.85-5.65 3.25-4.83 7.1.82 3.86 3.32 5.37 7.3 4.52l8.04-1.71-.79-3.7-7.4 1.57c-1.56.33-3.47.49-3.87-1.39-.4-1.88 1.41-2.51 2.97-2.84l7.4-1.57-.78-3.69zm4.1 21.53-.46-3.75-13.86 1.7.46 3.76 6.86-.84c1.67-.21 4.29-.5 4.57 1.73.26 2.12-1.9 2.3-3.56 2.51l-7.34.9.46 3.76 8.47-1.04c3.22-.4 5.72-1.74 5.28-5.28-.16-1.34-.8-2.6-2.14-3.22l1.26-.23zM8.94 154.12c-1.18.87-1.96 2.54-2.22 3.92-.47 2.44 1.08 4.5 3.65 4.99 2.21.42 3.26-.72 4.1-1.91.84-1.19 1.36-2.44 2.56-2.21.89.17 1.36.95 1.2 1.77-.21 1.09-1.14 1.9-2.12 2.46l1.99 2.14c1.67-.87 2.83-2.4 3.17-4.15.52-2.73-.85-5.41-3.89-6-2.37-.45-3.58.69-4.45 1.93-.87 1.21-1.4 2.51-2.41 2.32-.67-.13-1.06-.84-.94-1.45.14-.74.69-1.35 1.32-1.78l-1.96-2.03zm4.36-8.41.55-2.26-3.26-.8-.55 2.26-4.59-1.13-.9 3.67 4.58 1.13-.31 1.26 3.26.8.31-1.26 10.3 2.53.9-3.67-10.29-2.53zm2.3-19.01-1.15 3.55 1.24.4c-1.37.52-2.4 1.66-2.82 2.97-1.18 3.62 1.62 6.89 5.14 8.03 3.6 1.17 7.83.21 9.03-3.49.42-1.31.26-2.84-.54-3.95l1.23.34 1.15-3.55-13.28-4.3zm8.35 9.56c-.6 1.85-2.92 2.35-4.7 1.77-1.78-.58-3.34-2.33-2.74-4.18.6-1.85 2.9-2.38 4.68-1.8 1.79.57 3.36 2.36 2.76 4.21m10.45-17.64 1.6-3.43L14.14 105l-1.6 3.43 10.36 4.83c-1.38.34-2.54 1.35-3.12 2.6-1.61 3.45.77 7.03 4.12 8.6 3.43 1.6 7.74 1.16 9.38-2.36.58-1.25.61-2.79-.09-3.98l1.21.5zm-3.95 1.2c-.82 1.76-3.18 1.97-4.88 1.18-1.7-.79-3.03-2.72-2.21-4.49.82-1.76 3.15-1.99 4.85-1.19 1.71.8 3.06 2.74 2.24 4.5m8.31-18.69c.97-1.49.51-3.55-1.09-4.59s-3.67-.65-4.65.86c-.99 1.52-.5 3.56 1.11 4.59 1.6 1.04 3.66.63 4.63-.86M8.67 176.79c-.44-.54-.7-1.2-.64-1.96.16-1.94 2.27-2.96 4.14-2.8 1.87.15 3.81 1.51 3.65 3.44-.04.5-.21.94-.48 1.31l3.51.01c.31-.59.5-1.23.56-1.86.32-3.9-3.18-6.41-6.98-6.73-3.66-.3-7.53 1.68-7.84 5.43-.09 1.11.23 2.25.86 3.15l3.22.01zM309.51 76.45l-1.89 3.47 1.31 1.4 13.67-4.87h-9.36l-.38.17.08-.17h-3.43zm-248.75 0 1.3 1.25 1.21-1.25h-2.51zm-25.59 0-2.35 2.9 9.97 8.07c4.07 3.29 8.47 4.14 11.9-.1 3.17-3.91 1.93-7.73-1.47-10.88l-6.24.01 2.2 1.78c2.06 1.66 4.81 4.18 2.69 6.8-2.13 2.62-5.16.45-7.21-1.22l-9.1-7.36h-.39z" clip-path="url(#SVGID_00000084520457191205706780000013455712210974257815_)" fill="#0090d0"/>
        <path d="m67.34 53.27-2.81 2.53 9.34 10.38 2.81-2.53-9.34-10.38zm-6.9-4.84c-.92.83-.94 2.3-.09 3.25.88.97 2.32 1.09 3.25.26.92-.83.96-2.28.09-3.26-.86-.95-2.33-1.08-3.25-.25m13.36-.29-3.32 2.5 13.43 7.72 1.55-1.17-3.7-15.05-3.3 2.49 2.56 7.93-7.22-4.42zm25.28-7.96c-2.49-3.98-5.93-5.82-9.62-3.51-3.64 2.28-3.69 6.23-1.44 9.82s6 4.87 9.49 2.69c2.36-1.48 3.5-4.03 2.8-6.88l-3.27 1.34c.15 1.21-.09 2.3-1.14 2.96-1.67 1.04-3.28-.3-4.21-1.8l7.39-4.62zm-8.62 2.46c-.61-1.33-.62-2.93.66-3.73 1.24-.77 2.71-.05 3.62 1.06l-4.28 2.67zm12.55-13.01-3.4 1.66 6.12 12.55 3.4-1.66-2.75-5.65c-.95-1.94-1.78-4.26.58-5.41.51-.25 1.07-.33 1.63-.23l-1.21-3.52c-.52.03-1.07.14-1.56.38-1.26.62-1.98 1.73-2.13 3.16l-.68-1.28zm16.13-6.13c-1.38-.52-3.2-.27-4.5.25-2.3.93-3.19 3.35-2.21 5.77.84 2.08 2.38 2.35 3.83 2.41 1.45.06 2.79-.17 3.24.96.34.84-.06 1.65-.84 1.96-1.03.42-2.22.07-3.21-.45l-.72 2.84c1.63.93 3.55 1.08 5.21.41 2.58-1.04 4.09-3.65 2.93-6.52-.91-2.24-2.52-2.63-4.03-2.69-1.49-.07-2.87.18-3.25-.77-.26-.63.13-1.34.7-1.57.7-.28 1.51-.15 2.22.15l.63-2.75zm8.09-3.98-3.58 1.23 4.55 13.2 3.58-1.23-4.55-13.2zm-4.47-7.16c-1.18.4-1.77 1.75-1.35 2.96.43 1.24 1.71 1.91 2.89 1.5 1.18-.4 1.78-1.73 1.35-2.96-.42-1.21-1.71-1.91-2.89-1.5m14.16 7.62 2.22-.68-.98-3.21-2.22.68-1.38-4.51-3.62 1.11 1.38 4.51-1.24.38.98 3.21 1.24-.38 3.1 10.14 3.62-1.1-3.1-10.15zm11.24 6.05-2.29 10.28 4.07-.86 4.98-22.95-4.12.88-1.68 8.47-4.74-7.1-4.2.89 7.98 10.39zm27.44-15.94c-4.13.14-6.86 3.34-6.71 7.69.15 4.32 3.07 7.32 7.22 7.18 4.16-.15 6.86-3.34 6.71-7.66-.14-4.36-3.09-7.36-7.22-7.21m.13 3.52c1.94-.07 3.2 1.88 3.27 3.81.07 1.88-1.05 3.93-3 4-1.94.07-3.2-1.91-3.27-3.79-.07-1.92 1.05-3.95 3-4.02m15.15.19 3.02.11.12-3.35-3.02-.11.12-3.52c.04-1.14-.07-3.45 1.6-3.39.57.02 1.05.26 1.52.54l.12-3.55c-.56-.33-1.17-.5-1.79-.52-3.65-.13-5.1 2.81-5.22 6.22l-.14 4.09-1.27-.04-.12 3.35 1.27.04-.37 10.6 3.78.13.38-10.6zm31.21-6.66c-1.24-1-2.72-1.69-4.29-1.93-5.9-.91-10.75 3.77-11.68 9.79-.9 5.85 2.49 11.64 8.15 12.51 1.63.25 3.18-.05 4.76-.56l.76-4.92c-1.3 1.15-3.12 1.82-4.81 1.56-3.66-.57-5.35-4.48-4.79-8.05.57-3.65 3.29-6.97 7.06-6.39 1.68.26 3.21 1.36 4.08 2.93l.76-4.94zm17.39 11.96-3.57-1.08-.38 1.25c-.55-1.35-1.71-2.36-3.03-2.76-3.65-1.1-6.85 1.76-7.92 5.3-1.09 3.62-.05 7.83 3.68 8.95 1.32.4 2.84.2 3.94-.62l-.32 1.24 3.57 1.08 4.03-13.36zm-9.38 8.54c-1.86-.56-2.41-2.87-1.86-4.66.54-1.8 2.26-3.39 4.12-2.82 1.86.56 2.44 2.85 1.9 4.64-.55 1.8-2.3 3.4-4.16 2.84m18.43-5.43-3.51-1.4-7.95 19.88 3.51 1.4 3.25-8.13c.33 1.36 1.43 2.47 2.68 2.97 3.64 1.45 7.07-1.15 8.48-4.69 1.36-3.41.6-7.69-2.88-9.09-1.3-.52-2.85-.44-4.06.25l.48-1.19zm-1.49 11.14c-1.81-.72-2.15-3.07-1.45-4.81.7-1.74 2.55-3.18 4.36-2.45 1.81.72 2.16 3.04 1.46 4.78-.7 1.74-2.56 3.2-4.37 2.48m22.03 6.97c2.19-4.15 2.05-8.05-1.8-10.08-3.8-2-7.24-.06-9.21 3.69-1.98 3.75-1.19 7.64 2.45 9.55 2.46 1.3 5.25 1 7.36-1.04l-2.8-2.15c-.97.74-2.04 1.08-3.14.5-1.74-.92-1.39-2.98-.57-4.54l7.71 4.07zm-6.47-6.2c.84-1.2 2.22-2.01 3.56-1.31 1.29.68 1.41 2.32.91 3.66l-4.47-2.35zm30.2 8.03 3.33 2.4 2.12-2.96-9.89-7.11-2.12 2.96 3.34 2.4-10.39 14.46 3.23 2.32 10.38-14.47zm7.84 10.49c-3.17-2.66-7.33-2.1-10.13 1.23-2.78 3.31-2.62 7.49.57 10.17 3.19 2.67 7.33 2.11 10.11-1.21 2.79-3.34 2.61-7.54-.55-10.19m-2.27 2.7c1.49 1.25 1.12 3.54-.12 5.02-1.2 1.44-3.41 2.22-4.9.97-1.49-1.25-1.1-3.56.1-5 1.24-1.48 3.43-2.24 4.92-.99m24.23 21.11.95-.34-2.8-3-7.51 3.34h9.36zm-9.65 0 3.99-8.1-1.23-1.32-8.43 3.43 4.01-7.5-2.82-3.02-6.26 14.18 1.33 1.42 8.38-3.49-2.4 4.4h3.43zm-249.68 0 1.42-1.47-4.97-4.8c-1.21-1.17-3.09-3.02-1.53-4.64 1.48-1.54 2.98.02 4.19 1.19l5.32 5.14 2.63-2.72-6.14-5.93c-2.33-2.25-4.95-3.35-7.43-.79-.94.97-1.51 2.26-1.15 3.69l-.96-.85L52.01 68l8.75 8.45h2.51zm-10.05 0c-.29-.27-.59-.53-.9-.79l-9.97-8.07-2.5 3.09 7.13 5.77h6.24zm-17.66 0-.23-.19-.15.19h.38z" clip-path="url(#SVGID_00000084520457191205706780000013455712210974257815_)" fill="#0090d0"/>
      </g>
    </g>
</svg>